<svg xmlns="http://www.w3.org/2000/svg" xmlns:xlink="http://www.w3.org/1999/xlink" version="1.1" x="0px" y="0px" viewBox="0 0 256 256" enable-background="new 0 0 256 256" xml:space="preserve">
<g><g><g><path fill="#000000" d="M77.2,99c-7,8.4-12.9,15.5-13.1,15.7c-0.2,0.2-12-0.4-26.4-1.2c-14.4-0.9-26.5-1.6-27.1-1.6c-1,0-1,0,0.4,2.4c0.8,1.3,2.4,3.9,3.7,5.7l2.3,3.3l4.8,0.3c97.8,6.3,216.6,14.1,218.3,14.3l2.2,0.2l1.2-4.4c0.7-2.4,1.2-4.5,1-4.6c-0.2-0.2-19.8-2-22.6-2c-0.7,0-0.8-0.5-0.8-3c0-3.6-1.7-3.3,13.2-2.3c6,0.4,10.9,0.6,11,0.6c0.1-0.1,0.3-1.8,0.5-3.7c0.3-3.3,0.3-3.6-0.6-3.6c-0.5,0-15.1-0.9-32.5-2.1c-17.4-1.2-31.6-2-31.7-1.9c-0.1,0-0.3,1.7-0.5,3.6l-0.3,3.5l2.9,0.3c1.6,0.2,3.8,0.3,4.8,0.3c1.1,0,2.6,0.1,3.4,0.3c1.3,0.3,1.4,0.3,1.3,3c0,3.2,1.1,3-9.7,2.1c-4-0.3-7.5-0.8-7.7-1c-0.2-0.2-0.9-5.3-1.5-11.3l-1.1-10.9l4-5.2c2.2-2.8,4-5.2,4-5.3c0-0.1-1.5-0.3-3.3-0.4c-1.8-0.1-21.7-1.6-44.2-3.3c-22.4-1.7-41.4-3-42.1-3C90.2,83.7,88.4,85.7,77.2,99z M111.3,95.4c5.5,0.3,10.1,0.7,10.3,0.8c0.3,0.3-4.8,21.8-5.3,22.3c-0.5,0.5-35-2-35-2.6c0-0.3,13.2-18.6,14.7-20.4C96.7,94.6,97.4,94.6,111.3,95.4z M147.4,97.4c7.1,0.4,13.1,0.8,13.2,0.9c0.3,0.3,1.1,23.7,0.9,24c-0.2,0.2-34.5-2.4-34.8-2.6c-0.1-0.2,3.8-21.2,4.2-22.4C131.1,96.5,131.7,96.5,147.4,97.4z M212.7,120.5l1.9,0.2v2.7c0,1.5-0.1,2.8-0.3,2.9c-0.3,0.1-14.1-0.8-14.8-1c-0.1,0-0.1-1.3-0.1-2.9v-2.9l5.7,0.3C208.2,120.1,211.6,120.3,212.7,120.5z"/><path fill="#000000" d="M21.7,128.8c0,1.2,12.8,14,18.9,18.9c14,11.2,30.9,19.3,47.1,22.5c10.8,2.2,12,2.2,80.3,2.1l64.4-0.1l4.2-14.5c3.6-12.2,4.1-14.5,3.5-14.7c-0.4,0-48.4-3.2-106.7-7c-58.3-3.8-107.2-7-108.8-7.2C23,128.5,21.7,128.6,21.7,128.8z"/></g></g></g>
</svg>
