<svg xmlns="http://www.w3.org/2000/svg" version="1.0" width="1000.000000pt" height="1000.000000pt" viewBox="0 0 1000.000000 1000.000000" preserveAspectRatio="xMidYMid meet">
 <g transform="translate(0.000000,1000.000000) scale(0.100000,-0.100000)" fill="#f97316" stroke="none">
<path d="M4680 9859 c-976 -63 -1915 -421 -2685 -1023 -230 -180 -500 -437 -680 -646 -713 -829 -1116 -1816 -1185 -2900 -53 -845 122 -1710 500 -2462 249 -495 534 -892 920 -1278 848 -848 1947 -1343 3150 -1420 739 -46 1509 85 2198 376 162 68 429 205 597 305 711 425 1311 1035 1724 1752 377 655 592 1372 641 2137 46 739 -85 1509 -376 2198 -68 162 -205 429 -305 597 -425 711 -1035 1311 -1752 1724 -830 478 -1790 702 -2747 640z"/>
</g>
<g transform="translate(0.000000,1000.000000) scale(0.100000,-0.100000)" fill="#000000" stroke="none">
<path d="M4680 9859 c-976 -63 -1915 -421 -2685 -1023 -230 -180 -500 -437 -680 -646 -713 -829 -1116 -1816 -1185 -2900 -53 -845 122 -1710 500 -2462 249 -495 534 -892 920 -1278 848 -848 1947 -1343 3150 -1420 739 -46 1509 85 2198 376 162 68 429 205 597 305 711 425 1311 1035 1724 1752 377 655 592 1372 641 2137 46 739 -85 1509 -376 2198 -68 162 -205 429 -305 597 -425 711 -1035 1311 -1752 1724 -830 478 -1790 702 -2747 640z m650 -604 c194 -16 270 -25 440 -56 939 -169 1802 -659 2440 -1386 862 -982 1222 -2287 989 -3583 -189 -1049 -779 -2001 -1643 -2649 -540 -405 -1182 -681 -1841 -790 -644 -106 -1266 -72 -1890 104 -779 220 -1492 673 -2035 1292 -799 911 -1171 2109 -1029 3318 135 1155 745 2210 1683 2914 825 619 1865 921 2886 836z"/>
<path d="M4765 8814 c-541 -44 -977 -159 -1433 -379 -1006 -486 -1756 -1405 -2032 -2489 -45 -177 -72 -325 -97 -526 -24 -202 -24 -638 0 -840 57 -464 167 -844 362 -1248 486 -1006 1405 -1756 2489 -2032 335 -85 577 -114 946 -114 369 0 611 29 946 114 711 181 1375 578 1864 1115 560 616 884 1327 987 2165 24 202 24 638 0 840 -56 461 -167 842 -358 1240 -487 1012 -1406 1764 -2493 2040 -308 78 -554 110 -891 115 -132 1 -262 1 -290 -1z m-1389 -2210 c22 -11 43 -32 57 -58 21 -40 21 -50 20 -348 l-2 -308 232 0 c128 0 249 -5 269 -10 20 -6 48 -24 62 -41 l26 -31 0 -404 0 -404 1028 0 c1180 0 1105 -5 1171 83 50 69 103 114 160 139 65 28 216 48 363 48 l127 0 5 43 c3 23 10 220 17 437 6 217 14 413 18 435 9 55 38 55 69 -2 23 -42 24 -52 35 -465 l12 -423 43 -3 c23 -2 322 9 663 23 342 14 628 24 636 21 11 -5 14 -15 10 -34 -13 -64 -112 -275 -177 -377 -148 -230 -222 -407 -259 -614 -10 -58 -31 -135 -46 -171 -41 -97 -46 -118 -28 -124 8 -3 45 -6 83 -6 38 0 80 -4 94 -10 50 -19 84 -137 56 -191 -11 -19 -56 -19 -3119 -19 -3035 0 -3109 0 -3132 19 -18 14 -24 29 -24 59 0 69 8 72 176 72 94 0 150 4 154 11 4 6 5 12 3 14 -2 2 -47 11 -101 19 -137 23 -210 63 -264 149 -34 54 -51 105 -143 426 -59 205 -77 278 -68 288 8 10 75 13 313 13 267 0 304 2 309 16 3 9 6 117 6 240 0 211 1 225 20 244 19 19 33 20 220 20 199 0 200 0 205 23 2 12 6 113 7 224 3 187 5 204 24 230 l21 28 197 3 196 2 0 365 0 365 111 0 c82 0 120 -4 145 -16z"/>
</g>
</svg>
