<svg xmlns="http://www.w3.org/2000/svg" version="1.0" width="1000.000000pt" height="1000.000000pt" viewBox="0 0 1000.000000 1000.000000" preserveAspectRatio="xMidYMid meet">
<g transform="translate(0.000000,1000.000000) scale(0.100000,-0.100000)" fill="#ffffff" stroke="none">
<path d="M3930 9383 c-586 -339 -1558 -900 -2160 -1248 l-1095 -632 0 -2503 0 -2503 920 -531 c506 -293 1479 -854 2163 -1249 l1242 -717 1243 717 c683 395 1656 956 2162 1249 l920 531 0 2503 0 2503 -1085 626 c-597 345 -1570 907 -2163 1249 -593 342 -1079 622 -1080 621 -1 0 -481 -277 -1067 -616z"/>
</g>
<g transform="translate(0.000000,1000.000000) scale(0.100000,-0.100000)" fill="#000000" stroke="none">
<path d="M3930 9383 c-586 -339 -1558 -900 -2160 -1248 l-1095 -632 0 -2503 0 -2503 920 -531 c506 -293 1479 -854 2163 -1249 l1242 -717 1243 717 c683 395 1656 956 2162 1249 l920 531 0 2503 0 2503 -1085 626 c-597 345 -1570 907 -2163 1249 -593 342 -1079 622 -1080 621 -1 0 -481 -277 -1067 -616z m1155 -7 c28 -13 862 -492 1855 -1065 1312 -757 1814 -1051 1837 -1078 18 -20 37 -52 43 -72 14 -49 14 -4263 0 -4312 -6 -20 -25 -52 -43 -72 -23 -27 -522 -320 -1837 -1078 -993 -573 -1827 -1052 -1855 -1065 -63 -30 -117 -30 -180 0 -27 13 -862 492 -1855 1065 -1315 758 -1814 1051 -1837 1078 -18 20 -37 52 -43 72 -14 49 -14 4263 0 4312 6 20 25 52 43 72 23 27 525 321 1837 1078 993 573 1828 1052 1855 1065 28 13 68 24 90 24 22 0 63 -11 90 -24z"/>
<path d="M3525 8089 c-808 -467 -1573 -909 -1700 -982 l-230 -133 0 -1969 0 -1969 1700 -982 c1213 -700 1704 -979 1715 -973 8 4 773 446 1700 982 l1685 973 0 1969 0 1969 -210 121 c-115 67 -871 503 -1680 970 -808 466 -1479 854 -1490 860 -18 11 -180 -80 -1490 -836z m1520 -585 l40 -126 133 1 c72 1 132 -2 132 -6 -1 -4 -48 -42 -105 -83 -58 -41 -105 -77 -105 -80 0 -3 18 -59 40 -125 22 -65 38 -120 36 -123 -3 -2 -52 30 -110 73 l-106 77 -106 -77 c-58 -43 -107 -75 -110 -73 -2 3 14 58 36 123 22 66 40 122 40 125 0 3 -47 39 -105 80 -57 41 -104 79 -105 83 0 4 60 7 132 6 l133 -1 40 126 c22 69 42 126 45 126 3 0 23 -57 45 -126z m-1141 -316 l37 -117 137 -3 136 -3 -103 -74 c-56 -41 -105 -80 -108 -87 -3 -8 13 -68 35 -134 22 -66 39 -120 36 -120 -2 0 -51 34 -109 76 -58 42 -111 74 -117 71 -7 -3 -56 -37 -108 -75 -52 -39 -96 -69 -98 -67 -2 2 14 59 36 128 l39 124 -110 79 -110 79 138 5 138 5 39 124 c22 68 43 120 47 115 4 -5 24 -62 45 -126z m2285 5 l38 -118 138 -5 138 -5 -110 -79 -110 -79 39 -124 c22 -69 38 -126 36 -128 -2 -2 -46 28 -98 67 -52 38 -101 72 -108 75 -6 3 -59 -29 -117 -71 -58 -42 -107 -76 -109 -76 -3 0 14 54 36 120 22 66 38 126 35 134 -3 7 -52 46 -108 87 l-103 74 136 3 137 3 36 112 c47 146 45 141 51 134 3 -3 23 -59 43 -124z m-3125 -838 l39 -124 136 -3 135 -3 -103 -74 c-56 -41 -105 -79 -107 -85 -2 -6 14 -65 36 -130 22 -66 39 -121 37 -122 -1 -2 -49 31 -105 72 -57 41 -108 74 -115 74 -7 -1 -57 -34 -112 -75 -55 -40 -101 -72 -103 -70 -2 2 58 198 75 241 2 6 -44 47 -104 90 l-108 79 134 5 135 5 40 123 c22 67 43 122 46 122 3 0 23 -56 44 -125z m3962 3 l40 -123 135 -5 134 -5 -108 -79 c-60 -43 -106 -84 -104 -90 25 -68 78 -238 76 -241 -2 -2 -49 30 -104 70 -55 41 -105 74 -112 75 -7 0 -58 -33 -115 -74 -56 -41 -104 -74 -105 -72 -2 1 15 56 37 122 22 65 38 124 36 130 -2 6 -51 44 -107 85 l-103 74 135 3 136 3 39 124 c21 69 41 125 44 125 3 0 24 -55 46 -122z m-4090 -1268 l138 -5 -103 -75 c-58 -41 -108 -77 -112 -80 -5 -3 10 -61 32 -129 22 -68 38 -125 36 -127 -2 -2 -46 26 -98 64 -52 37 -100 71 -107 76 -7 4 -51 -21 -116 -68 -57 -42 -106 -76 -109 -76 -2 0 13 55 34 123 22 67 39 125 39 128 0 3 -47 39 -105 80 -57 41 -104 77 -105 82 0 4 61 7 135 7 l134 0 37 118 c20 64 39 121 42 127 3 5 24 -47 47 -115 l42 -125 139 -5z m4398 118 l37 -118 134 0 c74 0 135 -3 135 -7 -1 -5 -48 -41 -105 -82 -58 -41 -105 -77 -105 -80 0 -3 17 -61 39 -128 21 -68 36 -123 34 -123 -3 0 -52 34 -109 76 -65 47 -109 72 -116 68 -7 -5 -55 -39 -107 -76 -52 -38 -96 -66 -98 -64 -2 2 14 59 36 127 22 68 37 126 32 129 -4 3 -54 39 -112 80 l-103 75 139 5 139 5 40 122 c22 68 43 119 47 115 4 -4 23 -60 43 -124z m-4269 -1140 l40 -123 134 -5 133 -5 -101 -73 c-55 -40 -103 -77 -106 -82 -3 -5 12 -64 34 -132 22 -67 39 -123 38 -124 -1 -1 -51 33 -111 76 l-108 78 -107 -78 c-58 -43 -108 -77 -110 -75 -2 3 51 174 76 241 2 7 -44 47 -103 90 l-107 79 133 5 134 5 40 123 c22 67 43 122 46 122 3 0 23 -55 45 -122z m3961 0 l40 -123 134 -5 135 -5 -108 -79 c-60 -43 -106 -83 -104 -90 25 -67 78 -238 76 -241 -2 -2 -52 32 -110 75 l-107 78 -108 -78 c-60 -43 -110 -77 -111 -76 -1 1 16 57 38 124 22 68 37 127 34 132 -3 5 -51 42 -106 82 l-101 73 133 5 134 5 40 123 c22 67 42 122 45 122 3 0 24 -55 46 -122z m-3131 -820 c53 -164 34 -150 186 -146 71 2 129 1 129 -2 0 -3 -48 -39 -105 -80 -58 -41 -105 -79 -105 -85 0 -5 18 -64 39 -130 22 -66 39 -120 38 -121 -1 -1 -51 33 -111 77 -59 43 -113 76 -120 72 -6 -4 -53 -38 -104 -76 -52 -38 -96 -66 -99 -63 -3 2 13 59 35 125 l41 121 -32 24 c-18 13 -68 49 -111 80 l-79 56 136 0 136 0 43 130 c23 72 43 130 45 130 1 0 18 -50 38 -112z m2471 -146 c74 2 134 1 134 -2 0 -3 -22 -19 -48 -37 -26 -18 -75 -52 -109 -77 l-62 -45 41 -121 c22 -67 38 -124 35 -126 -3 -3 -47 25 -99 63 -51 38 -98 72 -104 76 -7 4 -61 -29 -120 -72 -60 -44 -110 -78 -111 -77 -1 1 16 55 38 121 21 66 39 125 39 131 0 6 -47 44 -105 85 -57 41 -105 76 -105 79 0 3 58 4 129 2 152 -4 132 -19 187 149 l37 114 44 -133 45 -133 134 3z m-1322 -177 l40 -125 133 0 c73 0 133 -3 133 -7 -1 -5 -48 -41 -105 -82 -120 -85 -113 -61 -58 -225 18 -55 31 -101 29 -103 -2 -3 -51 30 -107 72 -57 41 -109 73 -116 71 -6 -3 -55 -37 -108 -76 -53 -39 -99 -70 -101 -67 -2 2 11 48 29 103 55 164 62 140 -58 225 -57 41 -104 77 -105 82 0 4 60 7 133 7 l133 0 40 125 c21 68 41 125 44 125 3 0 23 -57 44 -125z"/>
</g>
</svg>
