<svg xmlns="http://www.w3.org/2000/svg" version="1.1" width="1000" height="1000" viewBox="0 0 1000 1000">
<path d="M0 0 C0.89235352 0.52770996 1.78470703 1.05541992 2.70410156 1.59912109 C4.23357422 2.4934082 4.23357422 2.4934082 5.79394531 3.40576172 C6.88320313 4.05480469 7.97246094 4.70384766 9.09472656 5.37255859 C10.25170008 6.05258037 11.40926369 6.73159906 12.56738281 7.40966797 C14.97137804 8.81823183 17.37278429 10.231065 19.77246094 11.64697266 C25.27307591 14.8877287 30.81078766 18.06417394 36.34472656 21.24755859 C38.50895177 22.49597448 40.67301375 23.74467339 42.83691406 24.99365234 C47.19538044 27.50825295 51.55484847 30.02110521 55.91503906 32.53271484 C66.36678856 38.55503188 76.80772204 44.59425197 87.21972656 50.68505859 C96.49036587 56.10714558 105.80409355 61.45079871 115.13519287 66.76779175 C124.21251292 71.94134646 133.25044189 77.17898014 142.26660156 82.45849609 C149.93046631 86.93922125 157.63158491 91.35250084 165.34472656 95.74755859 C175.06597162 101.28741792 184.75367525 106.88130791 194.41162109 112.53100586 C204.93557281 118.68522601 215.49852794 124.77125855 226.0625 130.85644531 C231.49132599 133.98436008 236.91791937 137.11614307 242.34472656 140.24755859 C244.51138239 141.49757738 246.67804906 142.74757738 248.84472656 143.99755859 C287.84472656 166.49755859 326.84472656 188.99755859 365.84472656 211.49755859 C366.91811279 212.11679199 367.99149902 212.73602539 369.09741211 213.37402344 C371.25522459 214.61897141 373.41294009 215.86408749 375.57055664 217.109375 C381.12189249 220.3130851 386.67509198 223.5134949 392.23144531 226.70849609 C411.76658536 237.94735809 411.76658536 237.94735809 420.40722656 243.12255859 C421.31831177 243.66759033 421.31831177 243.66759033 422.24780273 244.22363281 C426.21441607 246.6172481 426.21441607 246.6172481 427.34472656 247.74755859 C427.45188324 250.39417942 427.49309467 253.01507318 427.4929142 255.66253185 C427.49676441 256.50607496 427.50061463 257.34961807 427.50458151 258.21872309 C427.51637223 261.08227697 427.5209283 263.94579811 427.52554321 266.80937195 C427.53241567 268.86836042 427.53970388 270.92734754 427.54737508 272.98633319 C427.56718557 278.67327018 427.58052148 284.36020705 427.59272361 290.0471648 C427.60396809 294.91781301 427.6189068 299.78844711 427.63384672 304.65908518 C427.68719239 322.10912699 427.72528715 339.55918836 427.75878906 357.00927734 C427.76011308 357.69800928 427.76143709 358.38674122 427.76280122 359.09634382 C427.81497889 386.3487594 427.8593768 413.60118981 427.89059519 440.85363772 C427.89834838 447.60791045 427.90639563 454.36218282 427.91455078 461.11645508 C427.91544473 461.86280898 427.91633867 462.60916289 427.91725971 463.37813358 C427.94647013 487.58052575 428.00746721 511.78270379 428.08593463 535.98498255 C428.16641841 560.85438673 428.21769583 585.72367534 428.23105348 610.59321086 C428.23294661 614.10421751 428.23515984 617.6152239 428.23756027 621.12623024 C428.23802058 621.81725444 428.23848089 622.50827864 428.23895514 623.22024297 C428.24720227 634.35203695 428.28607622 645.48352398 428.33617607 656.61519944 C428.38582367 667.80051738 428.40186923 678.98550911 428.38575216 690.17095914 C428.37798009 696.23369626 428.38500368 702.29549035 428.43103409 708.358078 C428.47281639 713.90458939 428.47336854 719.44949463 428.4406039 724.99605248 C428.4360913 727.00623668 428.44692464 729.01652371 428.47435398 731.02652582 C428.66768228 746.08965429 428.66768228 746.08965429 425.36505866 750.22844279 C423.0510725 751.80554376 420.97352498 752.81353356 418.34472656 753.74755859 C417.43650146 754.29283203 416.52827637 754.83810547 415.5925293 755.39990234 C414.82884033 755.82400391 414.06515137 756.24810547 413.27832031 756.68505859 C412.39378174 757.17981689 411.50924316 757.6745752 410.59790039 758.18432617 C409.66872803 758.70019287 408.73955566 759.21605957 407.78222656 759.74755859 C399.69534409 764.27696996 391.65305171 768.87177022 383.65722656 773.56005859 C374.91869307 778.6800523 366.14457984 783.73402625 357.34472656 788.74755859 C347.62338558 794.28724759 337.93577564 799.88130922 328.27783203 805.53100586 C317.75388032 811.68522601 307.19092519 817.77125855 296.62695312 823.85644531 C291.19812714 826.98436008 285.77153375 830.11614307 280.34472656 833.24755859 C278.17807074 834.49757738 276.01140407 835.74757738 273.84472656 836.99755859 C272.23597656 837.92568359 272.23597656 837.92568359 270.59472656 838.87255859 C52.84472656 964.49755859 52.84472656 964.49755859 49.59130859 966.37451172 C47.43601346 967.61796369 45.28073983 968.86145295 43.12548828 970.10498047 C38.12134982 972.99218734 33.11702136 975.8790629 28.11187744 978.76452637 C26.36131416 979.77374963 24.61082246 980.78309696 22.86035156 981.79248047 C20.68080491 983.04923519 18.50112824 984.30576445 16.32128906 985.56201172 C15.32097656 986.13886719 14.32066406 986.71572266 13.29003906 987.31005859 C12.31325195 987.86822266 11.33646484 988.42638672 10.33007812 989.00146484 C8.24238949 990.22252709 6.17803346 991.48396932 4.1328125 992.77490234 C2.56321777 993.75136719 2.56321777 993.75136719 0.96191406 994.74755859 C-0.44018311 995.64474609 -0.44018311 995.64474609 -1.87060547 996.56005859 C-5.36254728 998.04917003 -7.03706887 997.7973175 -10.65527344 996.74755859 C-13.31054687 995.49511719 -13.31054687 995.49511719 -16.01464844 993.89599609 C-17.54412109 993.00170898 -17.54412109 993.00170898 -19.10449219 992.08935547 C-20.19375 991.4403125 -21.28300781 990.79126953 -22.40527344 990.12255859 C-23.56224695 989.44253681 -24.71981057 988.76351813 -25.87792969 988.08544922 C-28.28192492 986.67688535 -30.68333117 985.26405218 -33.08300781 983.84814453 C-38.58362224 980.60738881 -44.12130753 977.43089537 -49.65527344 974.24755859 C-51.82211378 972.99785967 -53.98877994 971.7478587 -56.15527344 970.49755859 C-57.22777344 969.87880859 -58.30027344 969.26005859 -59.40527344 968.62255859 C-71.3219401 961.74755859 -83.23860677 954.87255859 -95.15527344 947.99755859 C-96.22793457 947.37872803 -97.3005957 946.75989746 -98.40576172 946.12231445 C-100.57084414 944.87320341 -102.73588326 943.6240173 -104.90087891 942.37475586 C-110.3414305 939.2355355 -115.78274559 936.09765297 -121.22558594 932.96240234 C-131.67733543 926.94008531 -142.11826892 920.90086522 -152.53027344 914.81005859 C-161.20789585 909.73480736 -169.92132912 904.72497093 -178.65527344 899.74755859 C-188.3764296 894.2075413 -198.06422002 888.61381051 -207.72216797 882.96411133 C-218.24611968 876.80989118 -228.80907481 870.72385863 -239.37304688 864.63867188 C-244.80187286 861.51075711 -250.22846625 858.37897412 -255.65527344 855.24755859 C-257.82192926 853.9975398 -259.98859593 852.74753981 -262.15527344 851.49755859 C-301.15527344 828.99755859 -340.15527344 806.49755859 -379.15527344 783.99755859 C-380.22865967 783.3783252 -381.3020459 782.7590918 -382.40795898 782.12109375 C-384.56577147 780.87614578 -386.72348696 779.63102969 -388.88110352 778.38574219 C-394.43243936 775.18203209 -399.98563885 771.98162229 -405.54199219 768.78662109 C-425.07713223 757.5477591 -425.07713223 757.5477591 -433.71777344 752.37255859 C-434.32516357 752.0092041 -434.93255371 751.64584961 -435.55834961 751.27148438 C-439.52496294 748.87786909 -439.52496294 748.87786909 -440.65527344 747.74755859 C-440.76243011 745.10093777 -440.80364155 742.48004401 -440.80346107 739.83258533 C-440.80731129 738.98904223 -440.8111615 738.14549912 -440.81512839 737.2763941 C-440.8269191 734.41284021 -440.83147518 731.54931907 -440.83609009 728.68574524 C-440.84296255 726.62675677 -440.85025076 724.56776965 -440.85792196 722.508784 C-440.87773244 716.82184701 -440.89106835 711.13491014 -440.90327048 705.44795239 C-440.91451497 700.57730417 -440.92945367 695.70667008 -440.94439359 690.83603201 C-440.99773926 673.3859902 -441.03583403 655.93592883 -441.06933594 638.48583984 C-441.07065995 637.79710791 -441.07198396 637.10837597 -441.0733481 636.39877337 C-441.12552576 609.14635779 -441.16992367 581.89392738 -441.20114206 554.64147947 C-441.20889525 547.88720674 -441.2169425 541.13293436 -441.22509766 534.37866211 C-441.2259916 533.6323082 -441.22688555 532.8859543 -441.22780658 532.11698361 C-441.257017 507.91459144 -441.31801409 483.7124134 -441.3964815 459.51013464 C-441.47696529 434.64073046 -441.5282427 409.77144185 -441.54160036 384.90190633 C-441.54349348 381.39089968 -441.54570672 377.87989329 -441.54810715 374.36888695 C-441.54856745 373.67786275 -441.54902776 372.98683854 -441.54950202 372.27487421 C-441.55774915 361.14308024 -441.59662309 350.01159321 -441.64672295 338.87991774 C-441.69637054 327.69459981 -441.71241611 316.50960807 -441.69629903 305.32415805 C-441.68852696 299.26142093 -441.69555056 293.19962684 -441.74158096 287.13703918 C-441.78336326 281.5905278 -441.78391542 276.04562255 -441.75115077 270.49906471 C-441.74663818 268.48888051 -441.75747152 266.47859348 -441.78490086 264.46859137 C-441.97816531 249.41043706 -441.97816531 249.41043706 -438.6859653 245.27213323 C-436.36875583 243.69163664 -434.28662611 242.68832402 -431.65527344 241.74755859 C-430.64980469 241.15104492 -429.64433594 240.55453125 -428.60839844 239.93994141 C-427.71636719 239.44848633 -426.82433594 238.95703125 -425.90527344 238.45068359 C-424.38848999 237.60969116 -424.38848999 237.60969116 -422.84106445 236.75170898 C-421.78975342 236.17283936 -420.73844238 235.59396973 -419.65527344 234.99755859 C-412.46634723 231.00580035 -405.28890781 227.00757216 -398.21777344 222.81005859 C-391.24757509 218.67437891 -384.24026332 214.60634792 -377.21777344 210.56005859 C-376.11054932 209.92205322 -375.0033252 209.28404785 -373.86254883 208.62670898 C-371.59190276 207.31866383 -369.32114986 206.01080411 -367.05029297 204.703125 C-361.58357364 201.55423806 -356.11952457 198.40072596 -350.65527344 195.24755859 C-348.48862033 193.99753509 -346.32195364 192.74753513 -344.15527344 191.49755859 C-342.54652344 190.56943359 -342.54652344 190.56943359 -340.90527344 189.62255859 C-279.15527344 153.9975586 -279.15527344 153.9975586 -275.90478516 152.12231445 C-273.73970273 150.87320341 -271.57466362 149.6240173 -269.40966797 148.37475586 C-263.96911638 145.2355355 -258.52780128 142.09765297 -253.08496094 138.96240234 C-242.5929525 132.91700701 -232.11045668 126.85645641 -221.65527344 120.74755859 C-210.10797828 114.00054665 -198.52625316 107.31416542 -186.9375 100.63867188 C-181.50867401 97.51075711 -176.08208063 94.37897412 -170.65527344 91.24755859 C-168.48861761 89.9975398 -166.32195094 88.74753981 -164.15527344 87.49755859 C-163.08277344 86.87880859 -162.01027344 86.26005859 -160.90527344 85.62255859 C-73.15527343 34.99755859 -73.15527343 34.99755859 -69.90356445 33.12158203 C-67.74258356 31.87485604 -65.58161346 30.62811132 -63.4206543 29.38134766 C-57.91708493 26.20609976 -52.41331311 23.03120364 -46.90917969 19.85693359 C-45.79897461 19.21626953 -44.68876953 18.57560547 -43.54492188 17.91552734 C-41.35019682 16.65035564 -39.15425777 15.38728725 -36.95703125 14.12646484 C-31.94162462 11.24471818 -26.95020423 8.33603703 -22.01074219 5.32568359 C-20.70931274 4.54209473 -20.70931274 4.54209473 -19.3815918 3.74267578 C-17.78404344 2.77813017 -16.19429079 1.80049501 -14.61450195 0.80712891 C-13.91123779 0.3852832 -13.20797363 -0.0365625 -12.48339844 -0.47119141 C-11.88430664 -0.84179688 -11.28521484 -1.21240234 -10.66796875 -1.59423828 C-6.81981801 -2.85268253 -3.55123182 -1.67504774 0 0 Z " fill="#000000" transform="translate(506.6552734375,2.25244140625)"/>
<path d="M0 0 C0.89235352 0.52770996 1.78470703 1.05541992 2.70410156 1.59912109 C4.23357422 2.4934082 4.23357422 2.4934082 5.79394531 3.40576172 C6.88320313 4.05480469 7.97246094 4.70384766 9.09472656 5.37255859 C10.25170008 6.05258037 11.40926369 6.73159906 12.56738281 7.40966797 C14.97137804 8.81823183 17.37278429 10.231065 19.77246094 11.64697266 C25.27307591 14.8877287 30.81078766 18.06417394 36.34472656 21.24755859 C38.50895177 22.49597448 40.67301375 23.74467339 42.83691406 24.99365234 C47.19538044 27.50825295 51.55484847 30.02110521 55.91503906 32.53271484 C66.36678856 38.55503188 76.80772204 44.59425197 87.21972656 50.68505859 C96.49036587 56.10714558 105.80409355 61.45079871 115.13519287 66.76779175 C124.21251292 71.94134646 133.25044189 77.17898014 142.26660156 82.45849609 C149.93046631 86.93922125 157.63158491 91.35250084 165.34472656 95.74755859 C175.06597162 101.28741792 184.75367525 106.88130791 194.41162109 112.53100586 C204.93557281 118.68522601 215.49852794 124.77125855 226.0625 130.85644531 C231.49132599 133.98436008 236.91791937 137.11614307 242.34472656 140.24755859 C244.51138239 141.49757738 246.67804906 142.74757738 248.84472656 143.99755859 C287.84472656 166.49755859 326.84472656 188.99755859 365.84472656 211.49755859 C366.91811279 212.11679199 367.99149902 212.73602539 369.09741211 213.37402344 C371.25522459 214.61897141 373.41294009 215.86408749 375.57055664 217.109375 C381.12189249 220.3130851 386.67509198 223.5134949 392.23144531 226.70849609 C411.76658536 237.94735809 411.76658536 237.94735809 420.40722656 243.12255859 C421.31831177 243.66759033 421.31831177 243.66759033 422.24780273 244.22363281 C426.21441607 246.6172481 426.21441607 246.6172481 427.34472656 247.74755859 C427.45188324 250.39417942 427.49309467 253.01507318 427.4929142 255.66253185 C427.49676441 256.50607496 427.50061463 257.34961807 427.50458151 258.21872309 C427.51637223 261.08227697 427.5209283 263.94579811 427.52554321 266.80937195 C427.53241567 268.86836042 427.53970388 270.92734754 427.54737508 272.98633319 C427.56718557 278.67327018 427.58052148 284.36020705 427.59272361 290.0471648 C427.60396809 294.91781301 427.6189068 299.78844711 427.63384672 304.65908518 C427.68719239 322.10912699 427.72528715 339.55918836 427.75878906 357.00927734 C427.76011308 357.69800928 427.76143709 358.38674122 427.76280122 359.09634382 C427.81497889 386.3487594 427.8593768 413.60118981 427.89059519 440.85363772 C427.89834838 447.60791045 427.90639563 454.36218282 427.91455078 461.11645508 C427.91544473 461.86280898 427.91633867 462.60916289 427.91725971 463.37813358 C427.94647013 487.58052575 428.00746721 511.78270379 428.08593463 535.98498255 C428.16641841 560.85438673 428.21769583 585.72367534 428.23105348 610.59321086 C428.23294661 614.10421751 428.23515984 617.6152239 428.23756027 621.12623024 C428.23802058 621.81725444 428.23848089 622.50827864 428.23895514 623.22024297 C428.24720227 634.35203695 428.28607622 645.48352398 428.33617607 656.61519944 C428.38582367 667.80051738 428.40186923 678.98550911 428.38575216 690.17095914 C428.37798009 696.23369626 428.38500368 702.29549035 428.43103409 708.358078 C428.47281639 713.90458939 428.47336854 719.44949463 428.4406039 724.99605248 C428.4360913 727.00623668 428.44692464 729.01652371 428.47435398 731.02652582 C428.66768228 746.08965429 428.66768228 746.08965429 425.36505866 750.22844279 C423.0510725 751.80554376 420.97352498 752.81353356 418.34472656 753.74755859 C417.43650146 754.29283203 416.52827637 754.83810547 415.5925293 755.39990234 C414.82884033 755.82400391 414.06515137 756.24810547 413.27832031 756.68505859 C412.39378174 757.17981689 411.50924316 757.6745752 410.59790039 758.18432617 C409.66872803 758.70019287 408.73955566 759.21605957 407.78222656 759.74755859 C399.69534409 764.27696996 391.65305171 768.87177022 383.65722656 773.56005859 C374.91869307 778.6800523 366.14457984 783.73402625 357.34472656 788.74755859 C347.62338558 794.28724759 337.93577564 799.88130922 328.27783203 805.53100586 C317.75388032 811.68522601 307.19092519 817.77125855 296.62695312 823.85644531 C291.19812714 826.98436008 285.77153375 830.11614307 280.34472656 833.24755859 C278.17807074 834.49757738 276.01140407 835.74757738 273.84472656 836.99755859 C272.23597656 837.92568359 272.23597656 837.92568359 270.59472656 838.87255859 C52.84472656 964.49755859 52.84472656 964.49755859 49.59130859 966.37451172 C47.43601346 967.61796369 45.28073983 968.86145295 43.12548828 970.10498047 C38.12134982 972.99218734 33.11702136 975.8790629 28.11187744 978.76452637 C26.36131416 979.77374963 24.61082246 980.78309696 22.86035156 981.79248047 C20.68080491 983.04923519 18.50112824 984.30576445 16.32128906 985.56201172 C15.32097656 986.13886719 14.32066406 986.71572266 13.29003906 987.31005859 C12.31325195 987.86822266 11.33646484 988.42638672 10.33007812 989.00146484 C8.24238949 990.22252709 6.17803346 991.48396932 4.1328125 992.77490234 C2.56321777 993.75136719 2.56321777 993.75136719 0.96191406 994.74755859 C-0.44018311 995.64474609 -0.44018311 995.64474609 -1.87060547 996.56005859 C-5.36254728 998.04917003 -7.03706887 997.7973175 -10.65527344 996.74755859 C-13.31054687 995.49511719 -13.31054687 995.49511719 -16.01464844 993.89599609 C-17.54412109 993.00170898 -17.54412109 993.00170898 -19.10449219 992.08935547 C-20.19375 991.4403125 -21.28300781 990.79126953 -22.40527344 990.12255859 C-23.56224695 989.44253681 -24.71981057 988.76351813 -25.87792969 988.08544922 C-28.28192492 986.67688535 -30.68333117 985.26405218 -33.08300781 983.84814453 C-38.58362224 980.60738881 -44.12130753 977.43089537 -49.65527344 974.24755859 C-51.82211378 972.99785967 -53.98877994 971.7478587 -56.15527344 970.49755859 C-57.22777344 969.87880859 -58.30027344 969.26005859 -59.40527344 968.62255859 C-71.3219401 961.74755859 -83.23860677 954.87255859 -95.15527344 947.99755859 C-96.22793457 947.37872803 -97.3005957 946.75989746 -98.40576172 946.12231445 C-100.57084414 944.87320341 -102.73588326 943.6240173 -104.90087891 942.37475586 C-110.3414305 939.2355355 -115.78274559 936.09765297 -121.22558594 932.96240234 C-131.67733543 926.94008531 -142.11826892 920.90086522 -152.53027344 914.81005859 C-161.20789585 909.73480736 -169.92132912 904.72497093 -178.65527344 899.74755859 C-188.3764296 894.2075413 -198.06422002 888.61381051 -207.72216797 882.96411133 C-218.24611968 876.80989118 -228.80907481 870.72385863 -239.37304688 864.63867188 C-244.80187286 861.51075711 -250.22846625 858.37897412 -255.65527344 855.24755859 C-257.82192926 853.9975398 -259.98859593 852.74753981 -262.15527344 851.49755859 C-301.15527344 828.99755859 -340.15527344 806.49755859 -379.15527344 783.99755859 C-380.22865967 783.3783252 -381.3020459 782.7590918 -382.40795898 782.12109375 C-384.56577147 780.87614578 -386.72348696 779.63102969 -388.88110352 778.38574219 C-394.43243936 775.18203209 -399.98563885 771.98162229 -405.54199219 768.78662109 C-425.07713223 757.5477591 -425.07713223 757.5477591 -433.71777344 752.37255859 C-434.32516357 752.0092041 -434.93255371 751.64584961 -435.55834961 751.27148438 C-439.52496294 748.87786909 -439.52496294 748.87786909 -440.65527344 747.74755859 C-440.76243011 745.10093777 -440.80364155 742.48004401 -440.80346107 739.83258533 C-440.80731129 738.98904223 -440.8111615 738.14549912 -440.81512839 737.2763941 C-440.8269191 734.41284021 -440.83147518 731.54931907 -440.83609009 728.68574524 C-440.84296255 726.62675677 -440.85025076 724.56776965 -440.85792196 722.508784 C-440.87773244 716.82184701 -440.89106835 711.13491014 -440.90327048 705.44795239 C-440.91451497 700.57730417 -440.92945367 695.70667008 -440.94439359 690.83603201 C-440.99773926 673.3859902 -441.03583403 655.93592883 -441.06933594 638.48583984 C-441.07065995 637.79710791 -441.07198396 637.10837597 -441.0733481 636.39877337 C-441.12552576 609.14635779 -441.16992367 581.89392738 -441.20114206 554.64147947 C-441.20889525 547.88720674 -441.2169425 541.13293436 -441.22509766 534.37866211 C-441.2259916 533.6323082 -441.22688555 532.8859543 -441.22780658 532.11698361 C-441.257017 507.91459144 -441.31801409 483.7124134 -441.3964815 459.51013464 C-441.47696529 434.64073046 -441.5282427 409.77144185 -441.54160036 384.90190633 C-441.54349348 381.39089968 -441.54570672 377.87989329 -441.54810715 374.36888695 C-441.54856745 373.67786275 -441.54902776 372.98683854 -441.54950202 372.27487421 C-441.55774915 361.14308024 -441.59662309 350.01159321 -441.64672295 338.87991774 C-441.69637054 327.69459981 -441.71241611 316.50960807 -441.69629903 305.32415805 C-441.68852696 299.26142093 -441.69555056 293.19962684 -441.74158096 287.13703918 C-441.78336326 281.5905278 -441.78391542 276.04562255 -441.75115077 270.49906471 C-441.74663818 268.48888051 -441.75747152 266.47859348 -441.78490086 264.46859137 C-441.97816531 249.41043706 -441.97816531 249.41043706 -438.6859653 245.27213323 C-436.36875583 243.69163664 -434.28662611 242.68832402 -431.65527344 241.74755859 C-430.64980469 241.15104492 -429.64433594 240.55453125 -428.60839844 239.93994141 C-427.71636719 239.44848633 -426.82433594 238.95703125 -425.90527344 238.45068359 C-424.38848999 237.60969116 -424.38848999 237.60969116 -422.84106445 236.75170898 C-421.78975342 236.17283936 -420.73844238 235.59396973 -419.65527344 234.99755859 C-412.46634723 231.00580035 -405.28890781 227.00757216 -398.21777344 222.81005859 C-391.24757509 218.67437891 -384.24026332 214.60634792 -377.21777344 210.56005859 C-376.11054932 209.92205322 -375.0033252 209.28404785 -373.86254883 208.62670898 C-371.59190276 207.31866383 -369.32114986 206.01080411 -367.05029297 204.703125 C-361.58357364 201.55423806 -356.11952457 198.40072596 -350.65527344 195.24755859 C-348.48862033 193.99753509 -346.32195364 192.74753513 -344.15527344 191.49755859 C-342.54652344 190.56943359 -342.54652344 190.56943359 -340.90527344 189.62255859 C-279.15527344 153.9975586 -279.15527344 153.9975586 -275.90478516 152.12231445 C-273.73970273 150.87320341 -271.57466362 149.6240173 -269.40966797 148.37475586 C-263.96911638 145.2355355 -258.52780128 142.09765297 -253.08496094 138.96240234 C-242.5929525 132.91700701 -232.11045668 126.85645641 -221.65527344 120.74755859 C-210.10797828 114.00054665 -198.52625316 107.31416542 -186.9375 100.63867188 C-181.50867401 97.51075711 -176.08208063 94.37897412 -170.65527344 91.24755859 C-168.48861761 89.9975398 -166.32195094 88.74753981 -164.15527344 87.49755859 C-163.08277344 86.87880859 -162.01027344 86.26005859 -160.90527344 85.62255859 C-73.15527343 34.99755859 -73.15527343 34.99755859 -69.90356445 33.12158203 C-67.74258356 31.87485604 -65.58161346 30.62811132 -63.4206543 29.38134766 C-57.91708493 26.20609976 -52.41331311 23.03120364 -46.90917969 19.85693359 C-45.79897461 19.21626953 -44.68876953 18.57560547 -43.54492188 17.91552734 C-41.35019682 16.65035564 -39.15425777 15.38728725 -36.95703125 14.12646484 C-31.94162462 11.24471818 -26.95020423 8.33603703 -22.01074219 5.32568359 C-20.70931274 4.54209473 -20.70931274 4.54209473 -19.3815918 3.74267578 C-17.78404344 2.77813017 -16.19429079 1.80049501 -14.61450195 0.80712891 C-13.91123779 0.3852832 -13.20797363 -0.0365625 -12.48339844 -0.47119141 C-11.88430664 -0.84179688 -11.28521484 -1.21240234 -10.66796875 -1.59423828 C-6.81981801 -2.85268253 -3.55123182 -1.67504774 0 0 Z M-36.66699219 70.79443359 C-42.4448511 74.22794421 -48.26846692 77.58113294 -54.09277344 80.93505859 C-55.1989502 81.57241943 -56.30512695 82.20978027 -57.44482422 82.86645508 C-59.71651009 84.17518275 -61.98832098 85.48369344 -64.26025391 86.79199219 C-69.72697323 89.94087913 -75.19102231 93.09439123 -80.65527344 96.24755859 C-82.82192655 97.49758209 -84.98859323 98.74758206 -87.15527344 99.99755859 C-88.22777344 100.61630859 -89.30027344 101.23505859 -90.40527344 101.87255859 C-178.15527344 152.4975586 -178.15527344 152.4975586 -181.40576172 154.37280273 C-183.57084414 155.62191377 -185.73588326 156.87109989 -187.90087891 158.12036133 C-193.3414305 161.25958169 -198.78274559 164.39746422 -204.22558594 167.53271484 C-214.67733543 173.55503188 -225.11826892 179.59425197 -235.53027344 185.68505859 C-244.80091274 191.10714558 -254.11464042 196.45079871 -263.44573975 201.76779175 C-271.54235187 206.38239888 -279.61316145 211.03840746 -287.65527344 215.74755859 C-296.29024901 220.80386782 -304.96133663 225.79362982 -313.65527344 230.74755859 C-323.3637048 236.28011577 -333.04223363 241.86064226 -342.68261719 247.51123047 C-347.98765115 250.61826174 -353.30671256 253.69843111 -358.64746094 256.74365234 C-359.82833372 257.41862077 -361.00916084 258.09366909 -362.18994141 258.76879883 C-364.43383062 260.0500953 -366.68010537 261.32722677 -368.92919922 262.59936523 C-382.57286815 270.05716482 -382.57286815 270.05716482 -390.65527344 282.74755859 C-390.75235778 285.0948608 -390.78625662 287.44490075 -390.78949451 289.79420757 C-390.79184674 290.51958464 -390.79419897 291.24496172 -390.79662248 291.99231991 C-390.80332065 294.44189084 -390.80285402 296.89140883 -390.80244446 299.34098816 C-390.80574257 301.10741596 -390.80946803 302.87384302 -390.81358594 304.6402691 C-390.82361998 309.50932244 -390.82732499 314.37836346 -390.82997525 319.24742568 C-390.83387412 324.49297907 -390.84345273 329.73852267 -390.85218811 334.98406982 C-390.87196402 347.65927322 -390.88202003 360.33447743 -390.8909159 373.0096924 C-390.89529684 378.97538316 -390.90066414 384.94107302 -390.90590477 390.90676308 C-390.92291796 410.73231287 -390.9374129 430.55786211 -390.94465351 450.38341808 C-390.94656347 455.52994474 -390.9484838 460.6764714 -390.95043945 465.82299805 C-390.95092319 467.1021768 -390.95140693 468.38135555 -390.95190533 469.69929729 C-390.9602085 490.42864673 -390.98554986 511.15793852 -391.01802013 531.88726278 C-391.05106862 553.15875098 -391.06910026 574.43020986 -391.07229775 595.70172387 C-391.07446487 607.64930661 -391.08324301 619.59680527 -391.10875893 631.54436302 C-391.1304357 641.71791256 -391.13853123 651.89135759 -391.12879214 662.0649276 C-391.12423872 667.25677939 -391.12619422 672.44841543 -391.14555359 677.64023781 C-391.16312354 682.39316305 -391.16223776 687.14571418 -391.1466563 691.89864305 C-391.14427084 693.61806975 -391.14865221 695.33752194 -391.16048495 697.05690958 C-391.46623085 710.20968986 -391.46623085 710.20968986 -385.13133031 721.39089268 C-380.16739708 726.19064555 -373.796598 729.2368441 -367.78027344 732.49755859 C-365.5203919 733.74226088 -363.26127776 734.98835745 -361.00292969 736.23583984 C-359.36155029 737.14003662 -359.36155029 737.14003662 -357.68701172 738.0625 C-353.82615345 740.20838853 -350.01362317 742.42668347 -346.21777344 744.68505859 C-339.24802812 748.82149019 -332.2402514 752.88877613 -325.21777344 756.93505859 C-323.55693726 757.89206665 -323.55693726 757.89206665 -321.86254883 758.8684082 C-319.59190276 760.17645336 -317.32114986 761.48431307 -315.05029297 762.79199219 C-309.58357364 765.94087913 -304.11952457 769.09439123 -298.65527344 772.24755859 C-296.48862033 773.49758209 -294.32195364 774.74758206 -292.15527344 775.99755859 C-270.48860677 788.49755859 -248.8219401 800.99755859 -227.15527344 813.49755859 C-226.0826123 814.11638916 -225.00995117 814.73521973 -223.90478516 815.37280273 C-221.73970273 816.62191377 -219.57466362 817.87109989 -217.40966797 819.12036133 C-211.96911638 822.25958169 -206.52780128 825.39746422 -201.08496094 828.53271484 C-190.63321144 834.55503188 -180.19227796 840.59425197 -169.78027344 846.68505859 C-160.50963413 852.10714558 -151.19590645 857.45079871 -141.86480713 862.76779175 C-132.78748708 867.94134646 -123.74955811 873.17898014 -114.73339844 878.45849609 C-107.06953574 882.93922005 -99.36848508 887.35262611 -91.65527344 891.74755859 C-81.99072711 897.25434753 -72.36239398 902.81911846 -62.76416016 908.44091797 C-53.63817439 913.77746707 -44.45956204 919.02013535 -35.26855469 924.24365234 C-29.34971553 927.61304972 -23.47253099 931.02737739 -17.67431641 934.60107422 C-13.07048316 937.2152944 -8.79701244 937.25549135 -3.65527344 936.74755859 C4.63953737 934.32009986 12.0563263 929.69483753 19.46972656 925.37255859 C20.71029912 924.65587093 21.9511903 923.93973456 23.19238281 923.22412109 C26.91530426 921.07463084 30.63090921 918.91273133 34.34472656 916.74755859 C35.3962793 916.13493164 36.44783203 915.52230469 37.53125 914.89111328 C41.44363273 912.61006012 45.3548481 910.32704408 49.26318359 908.0390625 C57.52092858 903.20988414 65.82430042 898.46285048 74.13574219 893.72705078 C82.23216789 889.11253056 90.30279165 884.45660604 98.34472656 879.74755859 C106.97970214 874.69124937 115.65078975 869.70148737 124.34472656 864.74755859 C134.06597162 859.20769927 143.75367525 853.61380928 153.41162109 847.96411133 C163.93557281 841.80989118 174.49852794 835.72385863 185.0625 829.63867188 C190.49132599 826.51075711 195.91791937 823.37897412 201.34472656 820.24755859 C203.51138239 818.9975398 205.67804906 817.74753981 207.84472656 816.49755859 C209.45347656 815.56943359 209.45347656 815.56943359 211.09472656 814.62255859 C298.84472656 763.99755859 298.84472656 763.99755859 302.09521484 762.12231445 C304.26029727 760.87320341 306.42533638 759.6240173 308.59033203 758.37475586 C315.12575252 754.6037917 321.66270974 750.83551207 328.20117188 747.06982422 C331.43610809 745.20444421 334.66778349 743.33350169 337.89941406 741.46240234 C342.28479517 738.92599635 346.68740813 736.42319315 351.10253906 733.93896484 C353.26662389 732.70853535 355.4306872 731.47806803 357.59472656 730.24755859 C358.58875488 729.69640381 359.5827832 729.14524902 360.60693359 728.57739258 C368.00548006 724.34442846 373.5874569 720.04116174 376.34472656 711.74755859 C376.64626183 708.29383233 376.64626183 708.29383233 376.60199547 704.45481396 C376.60725458 703.36328682 376.60725458 703.36328682 376.61261994 702.24970862 C376.62194526 699.80426989 376.61700773 697.35906871 376.6121521 694.91362 C376.61588779 693.14546493 376.62048898 691.37731151 376.62588274 689.60916072 C376.6381382 684.74460833 376.63784928 679.88012458 376.63549399 675.01556027 C376.63508647 669.77139987 376.6461188 664.52726167 376.65560913 659.28311157 C376.672234 649.00667642 376.67771935 638.73026421 376.67883389 628.45381673 C376.67978365 620.10207437 376.68389033 611.75033959 376.69023514 603.39859962 C376.70785152 579.72886214 376.71707338 556.0591428 376.71557419 532.38939872 C376.71549428 531.11290642 376.71541437 529.83641412 376.71533203 528.52124023 C376.71525027 527.24319249 376.71516851 525.96514474 376.71508427 524.64836828 C376.71427123 503.93207541 376.73341237 483.21585523 376.76160876 462.49958339 C376.79032069 441.23706794 376.80414999 419.97458797 376.80242121 398.71205264 C376.80175673 386.77121176 376.80727448 374.83044708 376.82877731 362.88962364 C376.84696683 352.72343632 376.85135477 342.55735973 376.83775847 332.39116319 C376.83121761 327.2033522 376.831152 322.01575379 376.84846497 316.82796288 C376.86415121 312.07881128 376.86137759 307.33004161 376.8438967 302.58089957 C376.84081699 300.86288138 376.84449563 299.144835 376.85561685 297.42685004 C377.0093256 284.19894815 377.0093256 284.19894815 370.7019043 272.81201172 C366.49014257 269.45740956 362.16746114 266.75611117 357.40722656 264.24755859 C355.80303922 263.37890322 354.20024638 262.5076691 352.59863281 261.63427734 C351.7480127 261.17069824 350.89739258 260.70711914 350.02099609 260.22949219 C345.24878738 257.58697195 340.54950017 254.82031039 335.84472656 252.06005859 C327.40238704 247.11528865 318.94668674 242.19527009 310.46972656 237.31005859 C309.39013672 236.68784424 308.31054688 236.06562988 307.19824219 235.42456055 C305.00790136 234.16244343 302.81747154 232.90048075 300.62695312 231.63867188 C295.19812714 228.51075711 289.77153375 225.37897412 284.34472656 222.24755859 C282.17807074 220.9975398 280.01140407 219.74753981 277.84472656 218.49755859 C56.84472656 90.99755859 56.84472656 90.99755859 53.59106445 89.12036133 C51.43670247 87.87751627 49.28224372 86.63483892 47.12768555 85.39233398 C42.11201692 82.49959923 37.09724425 79.60535113 32.08609009 76.70480347 C30.32814588 75.68738154 28.56988214 74.67051398 26.81152344 73.65380859 C24.61818256 72.38537049 22.42542809 71.11591757 20.23339844 69.84521484 C15.28892691 66.98713881 10.33113776 64.15382151 5.34082031 61.37646484 C4.47513428 60.8937915 3.60944824 60.41111816 2.7175293 59.91381836 C-11.68687267 52.83388954 -24.57760773 63.59628402 -36.66699219 70.79443359 Z " fill="#000000" transform="translate(506.6552734375,2.25244140625)"/>
<path d="M0 0 C4.44389488 2.34044893 8.78691037 4.84562648 13.125 7.375 C14.36411138 8.09094881 15.6035376 8.80635296 16.84326172 9.52124023 C20.5674692 11.67176643 24.28428316 13.83484688 28 16 C29.0621875 16.61794434 30.124375 17.23588867 31.21875 17.87255859 C36.15448329 20.74511084 41.08620774 23.62443768 46.015625 26.5078125 C55.55822933 32.08429156 65.14057793 37.59211491 74.71777344 43.10888672 C80.14659942 46.23680148 85.57319281 49.36858448 91 52.5 C93.16665583 53.75001879 95.3333225 55.00001878 97.5 56.25 C195 112.5 195 112.5 292.5 168.75 C293.57266113 169.36883057 294.64532227 169.98766113 295.75048828 170.62524414 C297.91557071 171.87435518 300.08060982 173.12354129 302.24560547 174.37280273 C308.78102596 178.14376689 315.31798318 181.91204652 321.85644531 185.67773438 C325.09138153 187.54311438 328.32305693 189.41405691 331.5546875 191.28515625 C335.9400686 193.82156225 340.34268157 196.32436545 344.7578125 198.80859375 C346.92189732 200.03902324 349.08596064 201.26949056 351.25 202.5 C352.74104248 203.32673218 352.74104248 203.32673218 354.26220703 204.17016602 C361.6607535 208.40313013 367.24273034 212.70639686 370 221 C370.25299966 224.3625477 370.25299966 224.3625477 370.25726891 228.29274464 C370.26077498 229.0204294 370.26428105 229.74811416 370.26789337 230.49784997 C370.2772187 232.9432887 370.27228117 235.38848989 370.26742554 237.8339386 C370.27116123 239.60209367 370.27576242 241.37024708 370.28115618 243.13839787 C370.29341163 248.00295026 370.29312272 252.86743401 370.29076743 257.73199832 C370.29035991 262.97615872 370.30139224 268.22029692 370.31088257 273.46444702 C370.32750744 283.74088217 370.33299278 294.01729439 370.33410732 304.29374186 C370.33505708 312.64548422 370.33916377 320.997219 370.34550858 329.34895897 C370.36312495 353.01869645 370.37234681 376.68841579 370.37084763 400.35815988 C370.37072776 402.27289833 370.37072776 402.27289833 370.37060547 404.22631836 C370.37052371 405.50436611 370.37044195 406.78241385 370.37035771 408.09919032 C370.36954467 428.81548318 370.3886858 449.53170337 370.4168822 470.24797521 C370.44559413 491.51049065 370.45942343 512.77297062 370.45769465 534.03550595 C370.45703017 545.97634683 370.46254791 557.91711151 370.48405075 569.85793495 C370.50224027 580.02412228 370.50662821 590.19019887 370.4930319 600.3563954 C370.48649104 605.54420639 370.48642543 610.7318048 370.5037384 615.91959572 C370.51942465 620.66874732 370.51665103 625.41751699 370.49917014 630.16665902 C370.49609043 631.88467721 370.49976907 633.60272359 370.51089029 635.32070855 C370.61800099 653.04061967 370.61800099 653.04061967 364.4625181 659.65113813 C359.60511657 664.32995575 353.44281993 667.3175004 347.5625 670.5 C345.31149041 671.73905305 343.06151509 672.97998665 340.8125 674.22265625 C339.67425781 674.85059082 338.53601563 675.47852539 337.36328125 676.12548828 C332.22099449 678.9915218 327.13935338 681.95750671 322.0625 684.9375 C320.07170232 686.10431638 318.08081612 687.27098172 316.08984375 688.4375 C315.0932373 689.02144531 314.09663086 689.60539063 313.06982422 690.20703125 C307.7667275 693.30437038 302.44605065 696.37113858 297.125 699.4375 C296.04484619 700.06003662 294.96469238 700.68257324 293.85180664 701.32397461 C291.66203666 702.58576826 289.47217645 703.84740534 287.28222656 705.10888672 C281.85340058 708.23680148 276.42680719 711.36858448 271 714.5 C268.83334417 715.75001879 266.6666775 717.00001878 264.5 718.25 C262.89125 719.178125 262.89125 719.178125 261.25 720.125 C199.50000001 755.75 199.50000001 755.75 196.24951172 757.62524414 C194.08442929 758.87435518 191.91939018 760.12354129 189.75439453 761.37280273 C184.31384294 764.51202309 178.87252784 767.64990563 173.4296875 770.78515625 C162.97793801 776.80747329 152.53700452 782.84669337 142.125 788.9375 C132.85436069 794.35958699 123.54063301 799.70324012 114.20953369 805.02023315 C106.11292157 809.63484029 98.04211199 814.29084886 90 819 C80.77199471 824.4035646 71.5000533 829.72652361 62.20898438 835.02050781 C54.11255043 839.63503273 46.04241735 844.29176755 38 849 C29.63073469 853.89032933 21.2587235 858.77598263 12.859375 863.61450195 C11.63677655 864.32003244 10.41538338 865.02765639 9.1953125 865.73754883 C-9.747422 876.75327513 -9.747422 876.75327513 -19 875 C-27.47092829 871.80460545 -35.24809044 866.57567282 -43.01171875 861.953125 C-48.78957766 858.51961438 -54.61319348 855.16642566 -60.4375 851.8125 C-62.09676514 850.85645874 -62.09676514 850.85645874 -63.78955078 849.88110352 C-66.06123665 848.57237584 -68.33304755 847.26386516 -70.60498047 845.95556641 C-76.0716998 842.80667946 -81.53574887 839.65316736 -87 836.5 C-89.16665311 835.2499765 -91.33331979 833.99997653 -93.5 832.75 C-141.16666667 805.25 -188.83333333 777.75 -236.5 750.25 C-237.57266113 749.63116943 -238.64532227 749.01233887 -239.75048828 748.37475586 C-241.91557071 747.12564482 -244.08060982 745.87645871 -246.24560547 744.62719727 C-251.68615706 741.48797691 -257.12747216 738.35009437 -262.5703125 735.21484375 C-273.02206199 729.19252671 -283.46299548 723.15330663 -293.875 717.0625 C-303.14563931 711.64041301 -312.45936699 706.29675988 -321.79046631 700.97976685 C-330.85583959 695.81302111 -339.88603041 690.58920805 -348.88452148 685.30664062 C-354.38748612 682.08306211 -359.91471196 678.9086797 -365.47265625 675.78125 C-366.74809419 675.06128172 -368.023485 674.34122996 -369.29882812 673.62109375 C-371.74473901 672.24025128 -374.1959023 670.86942906 -376.65039062 669.50390625 C-394.09147316 659.66121801 -394.09147316 659.66121801 -397 650 C-397.59393977 644.26852664 -397.54047194 638.56213018 -397.50793457 632.80529785 C-397.51254556 631.03455038 -397.51889981 629.26380674 -397.52684355 627.49307108 C-397.54353275 622.63521117 -397.53529231 617.77766581 -397.52289867 612.91980481 C-397.51384887 607.67773135 -397.52781758 602.435712 -397.53881836 597.19364929 C-397.55660887 586.92761789 -397.5527612 576.66170343 -397.5411678 566.39566743 C-397.53213586 558.05257162 -397.53090844 549.7095086 -397.53526306 541.3664093 C-397.53587599 540.17917303 -397.53648893 538.99193676 -397.53712043 537.76872364 C-397.53839933 535.35690875 -397.53969618 532.94509387 -397.5410108 530.533279 C-397.55241816 507.91537159 -397.53930042 485.29752902 -397.51780933 462.67963225 C-397.49993823 443.27060126 -397.50304229 423.86166597 -397.52148438 404.45263672 C-397.54288831 381.9159028 -397.55131951 359.37922571 -397.53903532 336.84248304 C-397.53776112 334.43951894 -397.53650364 332.03655482 -397.53526306 329.6335907 C-397.53464596 328.45127299 -397.53402886 327.26895529 -397.53339306 326.05080977 C-397.52993873 317.71731573 -397.53577029 309.38385772 -397.54518127 301.05036926 C-397.55639731 290.89522189 -397.55336945 280.7401982 -397.5320583 270.58506501 C-397.52154265 265.40331726 -397.51743496 260.22177577 -397.53065491 255.04002953 C-397.54257378 250.2965349 -397.53602444 245.55343771 -397.5147447 240.80997914 C-397.51027652 239.09407512 -397.51254976 237.37813754 -397.52224785 235.66225511 C-397.61453806 217.97671239 -397.61453806 217.97671239 -391.47613573 211.35653448 C-386.51180786 206.55709478 -380.14141932 203.51076584 -374.125 200.25 C-371.86511846 199.00529771 -369.60600432 197.75920115 -367.34765625 196.51171875 C-366.25340332 195.9089209 -365.15915039 195.30612305 -364.03173828 194.68505859 C-360.17088001 192.53917006 -356.35834973 190.32087512 -352.5625 188.0625 C-345.59275468 183.9260684 -338.58497796 179.85878246 -331.5625 175.8125 C-330.45527588 175.17449463 -329.34805176 174.53648926 -328.20727539 173.87915039 C-325.93662932 172.57110523 -323.66587642 171.26324552 -321.39501953 169.95556641 C-315.9283002 166.80667946 -310.46425113 163.65316736 -305 160.5 C-302.83334689 159.2499765 -300.66668021 157.99997653 -298.5 156.75 C-296.89125 155.821875 -296.89125 155.821875 -295.25 154.875 C-129.5 59.25 -129.5 59.25 -126.24951172 57.37475586 C-124.08442929 56.12564482 -121.91939018 54.87645871 -119.75439453 53.62719727 C-114.31384294 50.48797691 -108.87252784 47.35009437 -103.4296875 44.21484375 C-92.00244934 37.63044837 -80.59358253 31.01669171 -69.20996094 24.35717773 C-60.04826068 19.0078148 -50.83723196 13.74609035 -41.61376953 8.50415039 C-35.69474593 5.13470767 -29.81741273 1.72027684 -24.01904297 -1.85351562 C-15.85955796 -6.48676129 -7.89405303 -3.67842297 0 0 Z M-23.125 47.0625 C-24.65929345 47.98841039 -26.19451058 48.91279128 -27.73046875 49.8359375 C-28.99189697 50.59729004 -28.99189697 50.59729004 -30.27880859 51.37402344 C-35.2966005 54.3722734 -40.37009398 57.27417636 -45.4375 60.1875 C-47.68625764 61.48296926 -49.93495475 62.77854358 -52.18359375 64.07421875 C-53.31265137 64.72438965 -54.44170898 65.37456055 -55.60498047 66.04443359 C-61.0716998 69.19332054 -66.53574887 72.34683264 -72 75.5 C-74.16665311 76.7500235 -76.33331979 78.00002347 -78.5 79.25 C-79.5725 79.86875 -80.645 80.4875 -81.75 81.125 C-195.5 146.75 -195.5 146.75 -198.75048828 148.62524414 C-200.91557071 149.87435518 -203.08060982 151.12354129 -205.24560547 152.37280273 C-210.68615706 155.51202309 -216.12747216 158.64990563 -221.5703125 161.78515625 C-232.02206199 167.80747329 -242.46299548 173.84669337 -252.875 179.9375 C-262.14563931 185.35958699 -271.45936699 190.70324012 -280.79046631 196.02023315 C-289.8569622 201.18761872 -298.8858291 206.41613375 -307.88891602 211.69335938 C-313.37424937 214.90285807 -318.87688868 218.07900714 -324.40234375 221.21875 C-325.03016754 221.57582031 -325.65799133 221.93289063 -326.30484009 222.30078125 C-329.35888436 224.03710266 -332.41498486 225.76962497 -335.47460938 227.49609375 C-336.58513672 228.12644531 -337.69566406 228.75679687 -338.83984375 229.40625 C-339.81300537 229.95603516 -340.78616699 230.50582031 -341.78881836 231.07226562 C-342.8485083 231.70841797 -343.90819824 232.34457031 -345 233 C-345.73991397 233.31425383 -346.47982794 233.62850766 -347.24216354 233.95228434 C-350.06175893 235.36159308 -351.90201011 236.62992372 -354 239 C-355.38667422 244.16461227 -355.21622216 249.29847257 -355.14285278 254.60095215 C-355.15322401 256.22292971 -355.16751879 257.84488613 -355.18539798 259.46679831 C-355.22300301 263.92305227 -355.20438791 268.37757387 -355.17652202 272.83383441 C-355.15618009 277.63973455 -355.18757907 282.44533425 -355.21234131 287.25117493 C-355.25239269 296.66539907 -355.24370345 306.07897801 -355.21762754 315.4932276 C-355.1973142 323.14325934 -355.19454017 330.79311005 -355.20434189 338.44316101 C-355.20572099 339.5313327 -355.20710008 340.61950439 -355.20852097 341.74065098 C-355.21139846 343.95114844 -355.21431637 346.16164585 -355.21727429 348.37214321 C-355.24294744 369.10732131 -355.21341601 389.8421415 -355.165071 410.57726091 C-355.12486009 428.37476597 -355.13184405 446.17174276 -355.17333984 463.96923828 C-355.22148749 484.62942726 -355.24047542 505.28930242 -355.21282947 525.94953966 C-355.20996248 528.15197272 -355.20713315 530.35440583 -355.20434189 532.55683899 C-355.20295341 533.64052013 -355.20156493 534.72420126 -355.20013437 535.84072122 C-355.19235866 543.48289519 -355.2054904 551.12487036 -355.22665787 558.76701355 C-355.25188191 568.07852909 -355.24510864 577.38936172 -355.19713117 586.70079887 C-355.17345232 591.45324155 -355.16425561 596.20454512 -355.19397354 600.95697975 C-355.22075998 605.3063469 -355.20611873 609.65351761 -355.15817557 614.00268489 C-355.14810734 615.57727693 -355.15327198 617.15205389 -355.17505766 618.72652739 C-355.5505795 627.06101449 -355.5505795 627.06101449 -352.02740264 634.22611904 C-349.73478205 635.78343664 -347.54760776 636.92361364 -345 638 C-343.99453125 638.59651367 -342.9890625 639.19302734 -341.953125 639.80761719 C-341.06109375 640.29907227 -340.1690625 640.79052734 -339.25 641.296875 C-338.23881104 641.85753662 -337.22762207 642.41819824 -336.18579102 642.99584961 C-335.13447998 643.57471924 -334.08316895 644.15358887 -333 644.75 C-325.81107379 648.74175824 -318.63363437 652.73998644 -311.5625 656.9375 C-304.59230165 661.07317969 -297.58498988 665.14121067 -290.5625 669.1875 C-288.90166382 670.14450806 -288.90166382 670.14450806 -287.20727539 671.12084961 C-284.93662932 672.42889477 -282.66587642 673.73675448 -280.39501953 675.04443359 C-274.9283002 678.19332054 -269.46425113 681.34683264 -264 684.5 C-261.83334689 685.7500235 -259.66668021 687.00002347 -257.5 688.25 C-235.83333333 700.75 -214.16666667 713.25 -192.5 725.75 C-191.42733887 726.36883057 -190.35467773 726.98766113 -189.24951172 727.62524414 C-187.08442929 728.87435518 -184.91939018 730.12354129 -182.75439453 731.37280273 C-177.31384294 734.51202309 -171.87252784 737.64990563 -166.4296875 740.78515625 C-155.97793801 746.80747329 -145.53700452 752.84669337 -135.125 758.9375 C-125.85436069 764.35958699 -116.54063301 769.70324012 -107.20953369 775.02023315 C-98.13221364 780.19378787 -89.09428467 785.43142154 -80.078125 790.7109375 C-72.41425865 795.1916636 -64.7130886 799.60484694 -57 804 C-47.78803049 809.25020014 -38.59727085 814.53412327 -29.4375 819.875 C-28.42623047 820.46410156 -27.41496094 821.05320312 -26.37304688 821.66015625 C-22.862671 823.71132661 -19.3836562 825.7442292 -16 828 C-11.10088388 828.82934426 -7.80705753 826.44101258 -3.8125 823.9375 C-2.28741612 823.01144165 -0.76130646 822.08707128 0.765625 821.1640625 C2.01762695 820.40270996 2.01762695 820.40270996 3.29492188 819.62597656 C8.30099187 816.61691283 13.37319594 813.72208637 18.4375 810.8125 C20.68629847 809.51710163 22.93499505 808.22152635 25.18359375 806.92578125 C26.87718018 805.9505249 26.87718018 805.9505249 28.60498047 804.95556641 C34.0716998 801.80667946 39.53574887 798.65316736 45 795.5 C47.16665311 794.2499765 49.33331979 792.99997653 51.5 791.75 C53.10875 790.821875 53.10875 790.821875 54.75 789.875 C90.5 769.25 90.5 769.25 93.75048828 767.37475586 C95.91557071 766.12564482 98.08060982 764.87645871 100.24560547 763.62719727 C105.68615706 760.48797691 111.12747216 757.35009437 116.5703125 754.21484375 C127.02206199 748.19252671 137.46299548 742.15330663 147.875 736.0625 C157.14563931 730.64041301 166.45936699 725.29675988 175.79046631 719.97976685 C183.88707843 715.36515971 191.95788801 710.70915114 200 706 C208.63497557 700.94369077 217.30606319 695.95392878 226 691 C235.72124506 685.46014067 245.40894868 679.86625068 255.06689453 674.21655273 C262.32211736 669.97382721 269.59354142 665.7600339 276.875 661.5625 C277.94379395 660.94632813 279.01258789 660.33015625 280.11376953 659.6953125 C284.58072422 657.12093069 289.04836421 654.54774077 293.51660156 651.97558594 C295.87346291 650.61884742 298.23006924 649.26166779 300.58642578 647.90405273 C302.79006869 646.63453881 304.99413955 645.36576732 307.19873047 644.09790039 C317.66775092 638.81438329 317.66775092 638.81438329 327 632 C327.1060828 629.92081354 327.14031824 627.83796147 327.14818764 625.7560854 C327.15396296 624.76175471 327.15396296 624.76175471 327.15985495 623.74733654 C327.17164035 621.49832573 327.1762007 619.24935661 327.18081665 617.00032043 C327.18768951 615.38268522 327.19497776 613.76505173 327.20264852 612.14742011 C327.22245483 607.68045339 327.23579337 603.21348683 327.24799705 598.7464937 C327.2592432 594.92042076 327.27418146 591.09436578 327.28912015 587.26830576 C327.43019528 551.01448991 327.49552968 514.76026908 327.54844093 478.50623035 C327.55545029 473.78629857 327.56257721 469.06636698 327.56982422 464.34643555 C327.57161951 463.17326331 327.5734148 462.00009106 327.5752645 460.79136815 C327.60534051 441.7805239 327.67011283 422.76995571 327.74851067 403.75925592 C327.82827092 384.25744694 327.87411183 364.75578109 327.88746679 345.25381202 C327.89588591 334.29759499 327.91973837 323.34186724 327.98213577 312.38581276 C328.03524131 303.05599382 328.05812735 293.72673289 328.04102559 284.39676712 C328.03325857 279.63415149 328.04023333 274.87273646 328.08630753 270.11031151 C328.12814506 265.75163057 328.12860557 261.39499225 328.09587733 257.03625151 C328.09137113 255.45808951 328.10215919 253.87979588 328.12962742 252.30186651 C328.53913959 243.9527311 328.53913959 243.9527311 325.02678657 236.7695936 C322.73415635 235.21248748 320.54892205 234.07280532 318 233 C316.54678345 232.13665039 316.54678345 232.13665039 315.06420898 231.25585938 C314.21673096 230.78986328 313.36925293 230.32386719 312.49609375 229.84375 C311.52099854 229.30371338 310.54590332 228.76367676 309.54125977 228.20727539 C308.51701904 227.64387451 307.49277832 227.08047363 306.4375 226.5 C297.92564082 221.77594016 289.46123888 216.98498361 281.0625 212.0625 C272.76612704 207.20075324 264.45656863 202.36373238 256.125 197.5625 C254.50476929 196.62869507 254.50476929 196.62869507 252.85180664 195.67602539 C250.66203666 194.41423174 248.47217645 193.15259466 246.28222656 191.89111328 C240.85340058 188.76319852 235.42680719 185.63141552 230 182.5 C227.83334417 181.24998121 225.6666775 179.99998122 223.5 178.75 C193.16666667 161.25 162.83333333 143.75 132.5 126.25 C131.42733887 125.63116943 130.35467773 125.01233887 129.24951172 124.37475586 C127.08442929 123.12564482 124.91939018 121.87645871 122.75439453 120.62719727 C117.31384294 117.48797691 111.87252784 114.35009437 106.4296875 111.21484375 C95.97793801 105.19252671 85.53700452 99.15330663 75.125 93.0625 C65.85605624 87.64140468 56.54430728 82.29821127 47.21456909 76.98278809 C39.01030976 72.30765204 30.83583326 67.58463676 22.6875 62.8125 C18.79359815 60.53834139 14.89742451 58.26811562 11 56 C9.41276123 55.07501709 9.41276123 55.07501709 7.79345703 54.13134766 C4.61775121 52.28626876 1.43501538 50.45395153 -1.75 48.625 C-3.20660034 47.77578979 -3.20660034 47.77578979 -4.69262695 46.90942383 C-5.59327881 46.39532959 -6.49393066 45.88123535 -7.421875 45.3515625 C-8.21174805 44.89604004 -9.00162109 44.44051758 -9.81542969 43.97119141 C-15.17537038 41.58832997 -18.65562185 44.29604581 -23.125 47.0625 Z " fill="#FDFDFD" transform="translate(513,64)"/>
<path d="M0 0 C0.66 0 1.32 0 2 0 C2.79375862 2.66605949 3.58505071 5.33281167 4.375 8 C4.59671875 8.74378906 4.8184375 9.48757813 5.046875 10.25390625 C5.26601563 10.99511719 5.48515625 11.73632812 5.7109375 12.5 C5.90993652 13.1703125 6.10893555 13.840625 6.31396484 14.53125 C7.27853671 18.00233567 8.12623753 21.50495011 9 25 C17.91 25 26.82 25 36 25 C36 25.66 36 26.32 36 27 C34.48706055 28.296875 34.48706055 28.296875 32.38671875 29.75 C31.63326172 30.2759375 30.87980469 30.801875 30.10351562 31.34375 C29.30623047 31.8903125 28.50894531 32.436875 27.6875 33 C26.50897461 33.81984375 26.50897461 33.81984375 25.30664062 34.65625 C22.22192565 36.7984861 19.12491281 38.91672479 16 41 C16.81394695 47.38635299 18.96107159 53.28925286 21.00390625 59.36328125 C21.27332031 60.18699219 21.54273438 61.01070312 21.8203125 61.859375 C22.07055176 62.60670898 22.32079102 63.35404297 22.57861328 64.12402344 C23 66 23 66 22 68 C20.71416016 67.00419922 20.71416016 67.00419922 19.40234375 65.98828125 C17.05487789 64.17208398 14.69966662 62.36651105 12.33984375 60.56640625 C10.44893204 59.12282963 8.59170034 57.66412915 6.75390625 56.15234375 C4.87117924 54.57709973 4.87117924 54.57709973 2 53 C-2.86768997 54.20189876 -6.64287773 57.51692465 -10.5625 60.5 C-11.8741702 61.49240736 -13.18791143 62.48208454 -14.50390625 63.46875 C-15.07955322 63.90638672 -15.6552002 64.34402344 -16.24829102 64.79492188 C-18.09391494 66.06460824 -19.97668829 67.04393877 -22 68 C-19.75424696 58.70179445 -16.45076489 49.90051656 -13 41 C-13.57596924 40.72671875 -14.15193848 40.4534375 -14.74536133 40.171875 C-18.63416063 38.15062577 -22.11462316 35.52693875 -25.6875 33 C-26.47189453 32.4534375 -27.25628906 31.906875 -28.06445312 31.34375 C-28.81017578 30.8178125 -29.55589844 30.291875 -30.32421875 29.75 C-31.3464856 29.03070313 -31.3464856 29.03070313 -32.3894043 28.296875 C-34 27 -34 27 -35 25 C-26.09 25 -17.18 25 -8 25 C-7.01 21.37 -6.02 17.74 -5 14 C-4.13720214 11.42618892 -3.24626388 8.86142303 -2.3125 6.3125 C-1.87550781 5.11238281 -1.43851563 3.91226562 -0.98828125 2.67578125 C-0.66214844 1.79277344 -0.33601562 0.90976562 0 0 Z " fill="#F4F4F4" transform="translate(728,466)"/>
<path d="M0 0 C0.66 0 1.32 0 2 0 C2.9860117 3.03949018 3.96256125 6.08194176 4.9375 9.125 C5.35418945 10.40890625 5.35418945 10.40890625 5.77929688 11.71875 C6.04677734 12.55664062 6.31425781 13.39453125 6.58984375 14.2578125 C6.95903931 15.40467529 6.95903931 15.40467529 7.33569336 16.57470703 C8.09195295 19.33570768 8.52937497 22.1762498 9 25 C18.24 25 27.48 25 37 25 C31.3673257 30.6326743 31.3673257 30.6326743 28.5546875 32.640625 C27.95269531 33.07117188 27.35070312 33.50171875 26.73046875 33.9453125 C26.11816406 34.37585938 25.50585938 34.80640625 24.875 35.25 C24.25496094 35.69601562 23.63492188 36.14203125 22.99609375 36.6015625 C20.3515746 38.47831803 18.09393776 39.96868741 15 41 C15.25394531 41.68964844 15.50789062 42.37929688 15.76953125 43.08984375 C22.17774823 60.58643617 22.17774823 60.58643617 23 67 C17.79416147 65.29062018 13.9966111 62.02741041 9.81640625 58.6328125 C6.66137223 56.1236325 3.9210013 54.02434911 0 53 C-2.3927667 54.00368521 -2.3927667 54.00368521 -4.57421875 55.8671875 C-5.82235352 56.82431641 -5.82235352 56.82431641 -7.09570312 57.80078125 C-8.37864258 58.82751953 -8.37864258 58.82751953 -9.6875 59.875 C-11.396851 61.20943758 -13.10895391 62.54036007 -14.82421875 63.8671875 C-15.57791748 64.46644043 -16.33161621 65.06569336 -17.1081543 65.68310547 C-19 67 -19 67 -21 67 C-19.98351621 61.83387062 -18.73247489 56.96075277 -16.796875 52.0625 C-15.39102955 48.42384118 -14.21007164 44.70745353 -13 41 C-13.515625 40.773125 -14.03125 40.54625 -14.5625 40.3125 C-18.59362953 38.14189179 -22.17857713 35.33367784 -25.8671875 32.6328125 C-28.82034218 30.49082477 -31.64211411 28.47746979 -35 27 C-35 26.34 -35 25.68 -35 25 C-25.76 25 -16.52 25 -7 25 C-6.67 23.02 -6.34 21.04 -6 19 C-5.56433587 17.40944965 -5.09519093 15.82761436 -4.58984375 14.2578125 C-4.32236328 13.41992188 -4.05488281 12.58203125 -3.77929688 11.71875 C-3.50150391 10.8628125 -3.22371094 10.006875 -2.9375 9.125 C-2.65583984 8.24585938 -2.37417969 7.36671875 -2.08398438 6.4609375 C-1.3930219 4.30607148 -0.69827361 2.1525057 0 0 Z " fill="#F5F5F5" transform="translate(499,237)"/>
<path d="M0 0 C0.66 0 1.32 0 2 0 C3.33834986 3.78991493 4.66982663 7.58220836 6 11.375 C6.3815625 12.45523437 6.763125 13.53546875 7.15625 14.6484375 C7.69765625 16.1953125 7.69765625 16.1953125 8.25 17.7734375 C8.58515625 18.72653809 8.9203125 19.67963867 9.265625 20.66162109 C10 23 10 23 10 25 C18.91 25 27.82 25 37 25 C31.3673257 30.6326743 31.3673257 30.6326743 28.5546875 32.640625 C27.95269531 33.07117188 27.35070312 33.50171875 26.73046875 33.9453125 C26.11816406 34.37585938 25.50585938 34.80640625 24.875 35.25 C24.25496094 35.69601562 23.63492188 36.14203125 22.99609375 36.6015625 C20.3515746 38.47831803 18.09393776 39.96868741 15 41 C15.40992188 42.03898437 15.81984375 43.07796875 16.2421875 44.1484375 C19.16786847 51.68039444 21.87741068 58.94832486 23 67 C20.08383684 65.63790625 17.61940161 64.06443607 15.06640625 62.109375 C13.9690918 61.29339844 13.9690918 61.29339844 12.84960938 60.4609375 C11.31983359 59.31654503 9.79896848 58.16014732 8.28710938 56.9921875 C7.55427734 56.45335937 6.82144531 55.91453125 6.06640625 55.359375 C5.40584229 54.85889648 4.74527832 54.35841797 4.06469727 53.84277344 C1.96141576 52.74209922 1.96141576 52.74209922 -0.49121094 53.66259766 C-2.93057596 54.96299096 -5.02764475 56.34213561 -7.20703125 58.0390625 C-7.95791016 58.61914062 -8.70878906 59.19921875 -9.48242188 59.796875 C-10.25134766 60.40015625 -11.02027344 61.0034375 -11.8125 61.625 C-12.60076172 62.23601563 -13.38902344 62.84703125 -14.20117188 63.4765625 C-16.13820974 64.9792343 -18.07092079 66.48713386 -20 68 C-21 66 -21 66 -20.47094727 63.90869141 C-20.17244873 63.06483887 -19.8739502 62.22098633 -19.56640625 61.3515625 C-19.24736328 60.42859375 -18.92832031 59.505625 -18.59960938 58.5546875 C-18.25736328 57.58789062 -17.91511719 56.62109375 -17.5625 55.625 C-16.8915436 53.72331785 -16.2259583 51.81972999 -15.56640625 49.9140625 C-15.26677979 49.0679541 -14.96715332 48.2218457 -14.65844727 47.35009766 C-13.82014035 44.76481988 -13.82014035 44.76481988 -14 41 C-15.62804024 39.26379938 -15.62804024 39.26379938 -17.8671875 37.80078125 C-18.67027344 37.23166016 -19.47335938 36.66253906 -20.30078125 36.07617188 C-21.15027344 35.49416016 -21.99976563 34.91214844 -22.875 34.3125 C-23.71675781 33.71888672 -24.55851563 33.12527344 -25.42578125 32.51367188 C-29.58141693 29.54031519 -29.58141693 29.54031519 -34 27 C-34 26.34 -34 25.68 -34 25 C-25.09 25 -16.18 25 -7 25 C-6.34 22.36 -5.68 19.72 -5 17 C-4.58223375 15.4966362 -4.1550049 13.99580597 -3.7109375 12.5 C-3.49179687 11.75878906 -3.27265625 11.01757812 -3.046875 10.25390625 C-2.71429688 9.13822266 -2.71429688 9.13822266 -2.375 8 C-2.14554687 7.22527344 -1.91609375 6.45054687 -1.6796875 5.65234375 C-1.12129882 3.76778195 -0.56086635 1.88382591 0 0 Z " fill="#F4F4F4" transform="translate(270,466)"/>
<path d="M0 0 C0.66 0 1.32 0 2 0 C3.17652472 3.4133521 4.33948174 6.83117595 5.5 10.25 C5.83386719 11.21808594 6.16773438 12.18617188 6.51171875 13.18359375 C6.82753906 14.11816406 7.14335937 15.05273438 7.46875 16.015625 C7.76201172 16.87446289 8.05527344 17.73330078 8.35742188 18.61816406 C9 21 9 21 9 25 C18.24 25 27.48 25 37 25 C34.22961917 27.77038083 32.01573482 29.83751816 28.890625 32.015625 C28.13652344 32.54414062 27.38242187 33.07265625 26.60546875 33.6171875 C25.82816406 34.15601563 25.05085937 34.69484375 24.25 35.25 C23.45722656 35.80429687 22.66445313 36.35859375 21.84765625 36.9296875 C19.90091002 38.29006438 17.95166452 39.64669316 16 41 C17.14394971 46.66473541 18.58408086 51.96835455 20.625 57.375 C23 63.67630058 23 63.67630058 23 67 C18.28766775 64.93174445 14.32854601 61.68211263 10.22070312 58.6328125 C5.48852934 54.96653306 5.48852934 54.96653306 0 53 C-2.61863623 54.43661293 -4.68417928 55.79906443 -7 57.625 C-7.60328125 58.07746094 -8.2065625 58.52992188 -8.828125 58.99609375 C-11.54687113 61.04697399 -14.19229186 63.15970908 -16.8125 65.3359375 C-19 67 -19 67 -21 67 C-19.74045602 60.4732721 -17.85528107 54.32109104 -15.67700195 48.05444336 C-14.42516659 44.60800374 -14.42516659 44.60800374 -14 41 C-16.17573193 39.289219 -18.3506959 37.69459016 -20.625 36.125 C-21.24246094 35.69058594 -21.85992187 35.25617187 -22.49609375 34.80859375 C-24.90685041 33.11852645 -27.31325709 31.43559548 -29.79980469 29.85839844 C-31.22987607 28.95125733 -32.61963422 27.98112153 -34 27 C-34 26.34 -34 25.68 -34 25 C-25.09 25 -16.18 25 -7 25 C-6.67 22.69 -6.34 20.38 -6 18 C-5.57806353 16.44576655 -5.11244849 14.90224347 -4.58984375 13.37890625 C-4.32236328 12.58935547 -4.05488281 11.79980469 -3.77929688 10.98632812 C-3.36260742 9.7865332 -3.36260742 9.7865332 -2.9375 8.5625 C-2.65583984 7.73556641 -2.37417969 6.90863281 -2.08398438 6.05664062 C-1.39482208 4.03587662 -0.6981769 2.01766718 0 0 Z " fill="#F5F5F5" transform="translate(499,695)"/>
<path d="M0 0 C0.66 0 1.32 0 2 0 C2.77283351 2.29100842 3.54328292 4.58277718 4.3125 6.875 C4.63250977 7.82246094 4.63250977 7.82246094 4.95898438 8.7890625 C6.76030284 14.16613254 8.3678982 19.55966067 10 25 C22.87 25.495 22.87 25.495 36 26 C30.375 31.625 30.375 31.625 27.23046875 33.89453125 C26.56982422 34.37470703 25.90917969 34.85488281 25.22851562 35.34960938 C24.55498047 35.83236328 23.88144531 36.31511719 23.1875 36.8125 C22.14819336 37.56563477 22.14819336 37.56563477 21.08789062 38.33398438 C19.39482309 39.5599988 17.69781244 40.7805649 16 42 C17.91765939 48.52428166 20.00084127 54.94433943 22.328125 61.3359375 C23.03607684 64.14304887 22.79790768 65.30077178 22 68 C21.45061768 67.57066162 20.90123535 67.14132324 20.33520508 66.69897461 C17.83947067 64.76264256 15.32650023 62.85004722 12.8125 60.9375 C11.94818359 60.26138672 11.08386719 59.58527344 10.19335938 58.88867188 C9.35224609 58.25380859 8.51113281 57.61894531 7.64453125 56.96484375 C6.48981323 56.07720337 6.48981323 56.07720337 5.31176758 55.17163086 C3.05187292 53.7828964 3.05187292 53.7828964 0.45239258 54.14672852 C-2.09474583 55.03296532 -3.76886451 56.02642409 -5.8828125 57.6875 C-6.57503906 58.22117187 -7.26726563 58.75484375 -7.98046875 59.3046875 C-8.68816406 59.86414063 -9.39585937 60.42359375 -10.125 61 C-11.54152017 62.10769325 -12.96068621 63.21201349 -14.3828125 64.3125 C-15.31697998 65.04919922 -15.31697998 65.04919922 -16.27001953 65.80078125 C-18 67 -18 67 -21 68 C-19.68188117 61.0499189 -17.49915342 54.7260013 -14.92578125 48.13671875 C-13.97583939 44.91813936 -13.78655498 44.00665932 -15 41 C-16.75743906 39.30052038 -16.75743906 39.30052038 -19 37.8359375 C-19.804375 37.27132812 -20.60875 36.70671875 -21.4375 36.125 C-22.7059375 35.25875 -22.7059375 35.25875 -24 34.375 C-25.66919703 33.21979352 -27.33599374 32.06110854 -29 30.8984375 C-29.7425 30.38974121 -30.485 29.88104492 -31.25 29.35693359 C-33 28 -33 28 -34 26 C-25.09 26 -16.18 26 -7 26 C-6.67 23.69 -6.34 21.38 -6 19 C-5.22453227 16.60548142 -4.38999693 14.22935233 -3.5 11.875 C-2.01129506 7.9195456 -0.69313713 4.1745759 0 0 Z " fill="#F6F6F6" transform="translate(697,351)"/>
<path d="M0 0 C0.66 0 1.32 0 2 0 C2.25394531 0.83402344 2.50789063 1.66804688 2.76953125 2.52734375 C4.57299729 8.42406978 6.39107977 14.29655618 8.484375 20.09765625 C9 22 9 22 9 26 C17.91 26 26.82 26 36 26 C30.375 31.625 30.375 31.625 27.23046875 33.89453125 C26.56982422 34.37470703 25.90917969 34.85488281 25.22851562 35.34960938 C24.55498047 35.83236328 23.88144531 36.31511719 23.1875 36.8125 C22.14819336 37.56563477 22.14819336 37.56563477 21.08789062 38.33398438 C19.39482309 39.5599988 17.69781244 40.7805649 16 42 C16.74750513 48.027958 18.85004029 53.35277203 21.00390625 58.98632812 C23.10563076 64.68310772 23.10563076 64.68310772 22 68 C21.48091064 67.61142822 20.96182129 67.22285645 20.42700195 66.82250977 C18.06210098 65.06011117 15.6875071 63.31125234 13.3125 61.5625 C12.49587891 60.95083984 11.67925781 60.33917969 10.83789062 59.70898438 C10.04189453 59.12568359 9.24589844 58.54238281 8.42578125 57.94140625 C7.69786377 57.40201416 6.96994629 56.86262207 6.2199707 56.30688477 C3.68169652 54.81261646 1.94828525 54.15348494 -1 54 C-3.40672574 55.13006727 -3.40672574 55.13006727 -5.64453125 56.96484375 C-6.90620117 57.91713867 -6.90620117 57.91713867 -8.19335938 58.88867188 C-9.05767578 59.56478516 -9.92199219 60.24089844 -10.8125 60.9375 C-11.69615234 61.60974609 -12.57980469 62.28199219 -13.49023438 62.97460938 C-15.67081966 64.63656897 -17.83973331 66.31176695 -20 68 C-21.18832513 64.56885825 -20.81430559 62.69769244 -19.53125 59.33984375 C-19.20769531 58.46392578 -18.88414062 57.58800781 -18.55078125 56.68554688 C-18.20402344 55.77869141 -17.85726563 54.87183594 -17.5 53.9375 C-16.81456325 52.137273 -16.13708864 50.33398823 -15.46875 48.52734375 C-15.01145508 47.33226196 -15.01145508 47.33226196 -14.54492188 46.11303711 C-13.75337787 43.83468232 -13.75337787 43.83468232 -15 41 C-17.22013969 39.28549421 -19.42869475 37.68976649 -21.75 36.125 C-22.99808427 35.27827063 -24.24293273 34.42675052 -25.484375 33.5703125 C-26.03834961 33.19664551 -26.59232422 32.82297852 -27.16308594 32.43798828 C-29.62797925 30.50840008 -31.78651749 28.21348251 -34 26 C-25.42 25.67 -16.84 25.34 -8 25 C-5.36 16.75 -2.72 8.5 0 0 Z " fill="#F6F6F6" transform="translate(301,351)"/>
<path d="M0 0 C0.66 0 1.32 0 2 0 C2.25394531 0.83402344 2.50789063 1.66804687 2.76953125 2.52734375 C4.57299729 8.42406978 6.39107977 14.29655618 8.484375 20.09765625 C9 22 9 22 9 26 C17.91 26 26.82 26 36 26 C30.39404402 31.60595598 30.39404402 31.60595598 27.484375 33.53515625 C26.87335938 33.95216797 26.26234375 34.36917969 25.6328125 34.79882812 C24.36501608 35.64972469 23.09410719 36.496 21.8203125 37.33789062 C18.41446086 39.55044463 18.41446086 39.55044463 16.22167969 42.84301758 C15.94027416 45.58114295 16.53694738 47.32796548 17.46875 49.9140625 C17.79230469 50.83960938 18.11585938 51.76515625 18.44921875 52.71875 C18.79597656 53.6778125 19.14273438 54.636875 19.5 55.625 C20.18378501 57.53146378 20.86121352 59.44022339 21.53125 61.3515625 C21.83611328 62.19541504 22.14097656 63.03926758 22.45507812 63.90869141 C23 66 23 66 22 68 C21.48091064 67.61142822 20.96182129 67.22285645 20.42700195 66.82250977 C18.06210098 65.06011117 15.6875071 63.31125234 13.3125 61.5625 C12.49587891 60.95083984 11.67925781 60.33917969 10.83789062 59.70898438 C10.04189453 59.12568359 9.24589844 58.54238281 8.42578125 57.94140625 C7.69786377 57.40201416 6.96994629 56.86262207 6.2199707 56.30688477 C3.68169652 54.81261646 1.94828525 54.15348494 -1 54 C-3.40672574 55.13006727 -3.40672574 55.13006727 -5.64453125 56.96484375 C-6.90620117 57.91713867 -6.90620117 57.91713867 -8.19335938 58.88867188 C-9.05767578 59.56478516 -9.92199219 60.24089844 -10.8125 60.9375 C-11.69615234 61.60974609 -12.57980469 62.28199219 -13.49023438 62.97460938 C-15.67081966 64.63656897 -17.83973331 66.31176695 -20 68 C-21.18832513 64.56885825 -20.81430559 62.69769244 -19.53125 59.33984375 C-19.20769531 58.46392578 -18.88414062 57.58800781 -18.55078125 56.68554688 C-18.20402344 55.77869141 -17.85726563 54.87183594 -17.5 53.9375 C-16.81456325 52.137273 -16.13708864 50.33398823 -15.46875 48.52734375 C-15.01145508 47.33226196 -15.01145508 47.33226196 -14.54492188 46.11303711 C-13.75337787 43.83468232 -13.75337787 43.83468232 -15 41 C-16.78093933 39.41973853 -16.78093933 39.41973853 -19 37.93359375 C-19.804375 37.36576172 -20.60875 36.79792969 -21.4375 36.21289062 C-22.283125 35.62701172 -23.12875 35.04113281 -24 34.4375 C-25.66930841 33.27331006 -27.33611071 32.10551577 -29 30.93359375 C-30.11375 30.1610022 -30.11375 30.1610022 -31.25 29.37280273 C-33 28 -33 28 -34 26 C-25.42 25.67 -16.84 25.34 -8 25 C-5.36 16.75 -2.72 8.5 0 0 Z " fill="#F6F6F6" transform="translate(301,580)"/>
<path d="M0 0 C1.82869652 2.74304477 2.71489201 4.79550338 3.7265625 7.88671875 C4.00580566 8.73194092 4.28504883 9.57716309 4.57275391 10.44799805 C4.91999512 11.51703369 5.26723633 12.58606934 5.625 13.6875 C6.73875 17.090625 7.8525 20.49375 9 24 C22.365 24.495 22.365 24.495 36 25 C30.375 30.625 30.375 30.625 27.01171875 32.89453125 C26.30595703 33.37470703 25.60019531 33.85488281 24.87304688 34.34960938 C24.15181641 34.83236328 23.43058594 35.31511719 22.6875 35.8125 C21.94693359 36.31458984 21.20636719 36.81667969 20.44335938 37.33398438 C18.63215731 38.56092771 16.81772622 39.78275266 15 41 C16.36454213 45.67501332 17.75535342 50.33026965 19.34765625 54.93359375 C19.57880127 55.60575928 19.80994629 56.2779248 20.0480957 56.97045898 C20.51296602 58.3146214 20.98408429 59.65664055 21.46166992 60.99633789 C22.03041566 62.64597922 22.52173856 64.32188969 23 66 C22.67 66.66 22.34 67.32 22 68 C20.71416016 67.00419922 20.71416016 67.00419922 19.40234375 65.98828125 C16.47284782 63.72253604 13.5328187 61.47085315 10.58984375 59.22265625 C9.29005961 58.22306795 8.0025648 57.20751723 6.71875 56.1875 C3.73865489 53.67986763 3.73865489 53.67986763 0.06665039 53.22094727 C-2.25502614 54.09613567 -3.99171108 55.20114175 -6.00390625 56.65234375 C-6.74447266 57.18150391 -7.48503906 57.71066406 -8.24804688 58.25585938 C-9.01181641 58.81080078 -9.77558594 59.36574219 -10.5625 59.9375 C-12.08450802 61.0301254 -13.60663855 62.12258018 -15.12890625 63.21484375 C-16.13546265 63.94368774 -16.13546265 63.94368774 -17.16235352 64.68725586 C-18.75265671 65.82330745 -20.37384131 66.9158942 -22 68 C-20.68656306 61.07460524 -18.51237755 54.79194309 -15.92578125 48.234375 C-14.93393125 44.76917752 -14.91005341 43.37524409 -16 40 C-17.73383472 38.18266835 -17.73383472 38.18266835 -20 36.73828125 C-21.2065625 35.89620117 -21.2065625 35.89620117 -22.4375 35.03710938 C-23.283125 34.46798828 -24.12875 33.89886719 -25 33.3125 C-26.66908606 32.1662755 -28.33587718 31.01669971 -30 29.86328125 C-30.7425 29.36094971 -31.485 28.85861816 -32.25 28.34106445 C-34 27 -34 27 -35 25 C-26.09 24.67 -17.18 24.34 -8 24 C-7.13375 21.1228125 -7.13375 21.1228125 -6.25 18.1875 C-4.36434324 12.04564654 -2.26477709 6.01129663 0 0 Z " fill="#F6F6F6" transform="translate(614,268)"/>
<path d="M0 0 C2.188364 2.188364 2.71634548 3.5772348 3.7265625 6.46484375 C4.0359375 7.34720703 4.3453125 8.22957031 4.6640625 9.13867188 C5.13972656 10.5240918 5.13972656 10.5240918 5.625 11.9375 C6.11226563 13.31711914 6.11226563 13.31711914 6.609375 14.72460938 C9 21.61021205 9 21.61021205 9 25 C17.91 25 26.82 25 36 25 C30.375 30.625 30.375 30.625 27.23046875 32.89453125 C26.56982422 33.37470703 25.90917969 33.85488281 25.22851562 34.34960938 C24.55498047 34.83236328 23.88144531 35.31511719 23.1875 35.8125 C22.14819336 36.56563477 22.14819336 36.56563477 21.08789062 37.33398438 C19.39482309 38.5599988 17.69781244 39.7805649 16 41 C16.52983229 45.41891051 17.30769426 49.29840843 18.9375 53.4375 C20.64213851 57.92534829 21.94048217 62.3204629 23 67 C20.09337466 65.63701306 17.59882166 64.06741375 15.03125 62.14453125 C14.29519531 61.60505859 13.55914062 61.06558594 12.80078125 60.50976562 C11.26131009 59.3741116 9.72746003 58.2307997 8.19921875 57.08007812 C7.46316406 56.54447266 6.72710937 56.00886719 5.96875 55.45703125 C5.30294922 54.96178955 4.63714844 54.46654785 3.95117188 53.95629883 C2.06398152 52.82478159 2.06398152 52.82478159 0.02246094 53.16259766 C-2.3717933 54.15394146 -4.23982786 55.40501621 -6.328125 56.94140625 C-7.12734375 57.52470703 -7.9265625 58.10800781 -8.75 58.70898438 C-9.575 59.32064453 -10.4 59.93230469 -11.25 60.5625 C-12.09046875 61.17802734 -12.9309375 61.79355469 -13.796875 62.42773438 C-15.86873236 63.94631164 -17.93617964 65.47052772 -20 67 C-21.18430134 63.57214644 -20.81604322 61.67145571 -19.56640625 58.3046875 C-19.24736328 57.42425781 -18.92832031 56.54382813 -18.59960938 55.63671875 C-18.08624023 54.26966797 -18.08624023 54.26966797 -17.5625 52.875 C-16.89459056 51.06083073 -16.22910218 49.24576769 -15.56640625 47.4296875 C-15.11696655 46.22675049 -15.11696655 46.22675049 -14.65844727 44.99951172 C-13.89573958 43.0342477 -13.89573958 43.0342477 -14 41 C-15.54722134 39.64781001 -15.54722134 39.64781001 -17.578125 38.3203125 C-18.32707031 37.80339844 -19.07601563 37.28648437 -19.84765625 36.75390625 C-20.64042969 36.21636719 -21.43320312 35.67882812 -22.25 35.125 C-23.79946634 34.06889608 -25.34642167 33.00909702 -26.890625 31.9453125 C-27.58188477 31.47625488 -28.27314453 31.00719727 -28.98535156 30.52392578 C-31 29 -31 29 -35 25 C-26.09 24.67 -17.18 24.34 -8 24 C-5.36 16.08 -2.72 8.16 0 0 Z " fill="#F6F6F6" transform="translate(385,268)"/>
<path d="M0 0 C0.66 0 1.32 0 2 0 C4.64 8.25 7.28 16.5 10 25 C22.87 25.495 22.87 25.495 36 26 C30.375 31.625 30.375 31.625 27.23046875 33.89453125 C26.56982422 34.37470703 25.90917969 34.85488281 25.22851562 35.34960938 C24.55498047 35.83236328 23.88144531 36.31511719 23.1875 36.8125 C22.14819336 37.56563477 22.14819336 37.56563477 21.08789062 38.33398438 C19.39482309 39.5599988 17.69781244 40.7805649 16 42 C17.91765939 48.52428166 20.00084127 54.94433943 22.328125 61.3359375 C23.03607684 64.14304887 22.79790768 65.30077178 22 68 C21.44538086 67.57589844 20.89076172 67.15179687 20.31933594 66.71484375 C17.80363589 64.7999236 15.2770696 62.89988687 12.75 61 C11.87730469 60.33226562 11.00460937 59.66453125 10.10546875 58.9765625 C9.26113281 58.34492187 8.41679688 57.71328125 7.546875 57.0625 C6.77182617 56.47597656 5.99677734 55.88945313 5.19824219 55.28515625 C2.8488638 53.66352975 2.8488638 53.66352975 -1 54 C-3.28361086 55.27681508 -3.28361086 55.27681508 -5.546875 57.0625 C-6.39121094 57.69414063 -7.23554687 58.32578125 -8.10546875 58.9765625 C-8.97816406 59.64429688 -9.85085938 60.31203125 -10.75 61 C-11.63816406 61.66773438 -12.52632812 62.33546875 -13.44140625 63.0234375 C-15.63416515 64.67390119 -17.81986762 66.33291446 -20 68 C-21 66 -21 66 -20.45507812 63.90869141 C-20.15021484 63.06483887 -19.84535156 62.22098633 -19.53125 61.3515625 C-19.20769531 60.42859375 -18.88414062 59.505625 -18.55078125 58.5546875 C-17.85274255 56.60848295 -17.15223828 54.66316089 -16.44921875 52.71875 C-16.12566406 51.79320312 -15.80210937 50.86765625 -15.46875 49.9140625 C-15.16388672 49.0679541 -14.85902344 48.2218457 -14.54492188 47.35009766 C-13.92868606 44.69244268 -13.88242166 43.48424971 -15 41 C-16.87144629 39.18778317 -16.87144629 39.18778317 -19.25390625 37.58203125 C-20.10791016 36.96779297 -20.96191406 36.35355469 -21.84179688 35.72070312 C-23.18854492 34.77614258 -23.18854492 34.77614258 -24.5625 33.8125 C-26.33649857 32.55079265 -28.10874094 31.28661103 -29.87890625 30.01953125 C-30.6685376 29.46370361 -31.45816895 28.90787598 -32.27172852 28.33520508 C-32.84205811 27.8945874 -33.4123877 27.45396973 -34 27 C-34 26.67 -34 26.34 -34 26 C-25.09 26 -16.18 26 -7 26 C-6.67 23.69 -6.34 21.38 -6 19 C-5.22453227 16.60548142 -4.38999693 14.22935233 -3.5 11.875 C-2.01129506 7.9195456 -0.69313713 4.1745759 0 0 Z " fill="#F7F7F7" transform="translate(697,580)"/>
<path d="M0 0 C2.21686917 2.72806768 3.56077703 5.09017809 4.60546875 8.44140625 C4.86650391 9.27220703 5.12753906 10.10300781 5.39648438 10.95898438 C5.65751953 11.81814453 5.91855469 12.67730469 6.1875 13.5625 C6.46013672 14.42552734 6.73277344 15.28855469 7.01367188 16.17773438 C9 22.58476269 9 22.58476269 9 26 C17.58 26 26.16 26 35 26 C29.375 31.625 29.375 31.625 26.44921875 33.67578125 C25.83369141 34.11083984 25.21816406 34.54589844 24.58398438 34.99414062 C23.64522461 35.64672852 23.64522461 35.64672852 22.6875 36.3125 C22.04232422 36.76689453 21.39714844 37.22128906 20.73242188 37.68945312 C19.15802858 38.79735952 17.57944354 39.89930525 16 41 C17.06199231 48.76680946 19.20903314 55.82614814 21.9765625 63.12890625 C23 66 23 66 23 68 C22.34 68 21.68 68 21 68 C21 67.34 21 66.68 21 66 C20.31164062 65.77441406 19.62328125 65.54882812 18.9140625 65.31640625 C15.30997063 63.68828432 12.42951644 61.40273187 9.375 58.9375 C5.04351335 55.37448442 5.04351335 55.37448442 0 53 C-2.40013438 54.46095136 -4.57601212 55.94353581 -6.8125 57.625 C-7.41642578 58.06457031 -8.02035156 58.50414062 -8.64257812 58.95703125 C-11.63162096 61.15135548 -14.51364296 63.41711825 -17.32421875 65.8359375 C-20 68 -20 68 -22 68 C-20.20603778 61.09596359 -18.15950142 54.3512568 -15.76953125 47.62890625 C-14.81271281 44.81671799 -14.81271281 44.81671799 -15 41 C-16.64550206 39.27916575 -16.64550206 39.27916575 -18.90234375 37.8359375 C-19.70994141 37.27132812 -20.51753906 36.70671875 -21.34960938 36.125 C-22.63061523 35.25875 -22.63061523 35.25875 -23.9375 34.375 C-25.61573516 33.21970241 -27.2916419 32.06101281 -28.96484375 30.8984375 C-29.7137085 30.38974121 -30.46257324 29.88104492 -31.23413086 29.35693359 C-33 28 -33 28 -34 26 C-25.42 26 -16.84 26 -8 26 C-7.34 23.03 -6.68 20.06 -6 17 C-5.53481956 15.45567685 -5.04145431 13.91879777 -4.4921875 12.40234375 C-4.22792969 11.66435547 -3.96367187 10.92636719 -3.69140625 10.16601562 C-3.42199219 9.43060547 -3.15257812 8.69519531 -2.875 7.9375 C-2.59785156 7.16728516 -2.32070313 6.39707031 -2.03515625 5.60351562 C-1.3616363 3.73391715 -0.68152583 1.86669497 0 0 Z " fill="#F7F7F7" transform="translate(385,664)"/>
<path d="M0 0 C0.66 0 1.32 0 2 0 C3.34090793 3.7681831 4.6714179 7.53995521 6 11.3125 C6.3815625 12.38435547 6.763125 13.45621094 7.15625 14.56054688 C7.69765625 16.10258789 7.69765625 16.10258789 8.25 17.67578125 C8.58515625 18.62364502 8.9203125 19.57150879 9.265625 20.5480957 C10 23 10 23 10 26 C18.58 26 27.16 26 36 26 C30.375 31.625 30.375 31.625 27.23046875 33.89453125 C26.56982422 34.37470703 25.90917969 34.85488281 25.22851562 35.34960938 C24.55498047 35.83236328 23.88144531 36.31511719 23.1875 36.8125 C22.14819336 37.56563477 22.14819336 37.56563477 21.08789062 38.33398438 C19.39482309 39.5599988 17.69781244 40.7805649 16 42 C16.391875 43.175625 16.78375 44.35125 17.1875 45.5625 C17.455625 46.36945312 17.72375 47.17640625 18 48.0078125 C18.76486497 50.2964319 19.53640118 52.58237934 20.3125 54.8671875 C20.77083923 56.22395634 21.22917255 57.58072718 21.6875 58.9375 C21.91397217 59.60015869 22.14044434 60.26281738 22.3737793 60.94555664 C24 65.77443013 24 65.77443013 24 68 C19.4055937 65.81733527 15.40040232 62.91835918 11.25 60 C10.45722656 59.4534375 9.66445313 58.906875 8.84765625 58.34375 C8.09871094 57.8178125 7.34976563 57.291875 6.578125 56.75 C5.89137695 56.27046875 5.20462891 55.7909375 4.49707031 55.296875 C4.00303711 54.86890625 3.50900391 54.4409375 3 54 C3 53.34 3 52.68 3 52 C-1.92910703 54.6863321 -6.3082991 57.62371719 -10.6875 61.125 C-17.31119452 66.40241514 -17.31119452 66.40241514 -21 68 C-19.10920028 60.85220408 -17.02888634 53.7903874 -14.76953125 46.75 C-13.86526115 43.99443664 -13.86526115 43.99443664 -14 41 C-15.55617074 39.51079604 -15.55617074 39.51079604 -17.6484375 38.1875 C-18.40640625 37.66929687 -19.164375 37.15109375 -19.9453125 36.6171875 C-20.74710938 36.08351563 -21.54890625 35.54984375 -22.375 35 C-23.94861999 33.94240475 -25.51907961 32.88008792 -27.0859375 31.8125 C-27.7876709 31.34457031 -28.4894043 30.87664063 -29.21240234 30.39453125 C-31 29 -31 29 -33 26 C-24.42 26 -15.84 26 -7 26 C-6.67 24.35 -6.34 22.7 -6 21 C-5.54773879 19.30115332 -5.07691262 17.60716506 -4.58984375 15.91796875 C-4.32236328 14.98662109 -4.05488281 14.05527344 -3.77929688 13.09570312 C-3.50150391 12.13599609 -3.22371094 11.17628906 -2.9375 10.1875 C-2.65583984 9.20845703 -2.37417969 8.22941406 -2.08398438 7.22070312 C-1.39111599 4.81327907 -0.69639849 2.40640481 0 0 Z " fill="#F7F7F7" transform="translate(613,664)"/>
<path d="M0 0 C8.91 0 17.82 0 27 0 C22 5 22 5 19 6 C18.67 5.34 18.34 4.68 18 4 C12.06 3.67 6.12 3.34 0 3 C0 2.01 0 1.02 0 0 Z " fill="#B4B4B4" transform="translate(509,262)"/>
<path d="M0 0 C2.98718234 3.44404552 4.34989524 7.23340856 5.75 11.5 C5.98332031 12.16386719 6.21664063 12.82773437 6.45703125 13.51171875 C7.6622111 17.12725831 8.13137043 19.37722861 7 23 C6.59007812 21.78441406 6.18015625 20.56882812 5.7578125 19.31640625 C5.21392765 17.73163831 4.66963574 16.14701003 4.125 14.5625 C3.85558594 13.76005859 3.58617187 12.95761719 3.30859375 12.13085938 C3.04433594 11.36708984 2.78007812 10.60332031 2.5078125 9.81640625 C2.26691895 9.10943604 2.02602539 8.40246582 1.77783203 7.67407227 C1.11814241 5.79961195 1.11814241 5.79961195 -1 5 C-0.67 3.35 -0.34 1.7 0 0 Z " fill="#B8B8B8" transform="translate(385,664)"/>
<path d="M0 0 C8.58 0 17.16 0 26 0 C24.68 1.32 23.36 2.64 22 4 C21.34 3.34 20.68 2.68 20 2 C17.87139338 1.63047951 17.87139338 1.63047951 15.4296875 1.5859375 C14.53378906 1.54726563 13.63789062 1.50859375 12.71484375 1.46875 C11.77769531 1.4378125 10.84054687 1.406875 9.875 1.375 C8.45767578 1.31699219 8.45767578 1.31699219 7.01171875 1.2578125 C4.67467625 1.16338654 2.33764499 1.07781606 0 1 C0 0.67 0 0.34 0 0 Z " fill="#EEEEEE" transform="translate(707,606)"/>
<path d="M0 0 C8.58 0 17.16 0 26 0 C26 0.33 26 0.66 26 1 C19.4 1 12.8 1 6 1 C5.67 1.99 5.34 2.98 5 4 C3.31503702 3.03114628 1.64821244 2.03013277 0 1 C0 0.67 0 0.34 0 0 Z " fill="#EFEFEF" transform="translate(663,606)"/>
<path d="M0 0 C8.58 0 17.16 0 26 0 C26 0.33 26 0.66 26 1 C25.40461426 1.01981934 24.80922852 1.03963867 24.19580078 1.06005859 C21.50507847 1.15516126 18.81514852 1.26489842 16.125 1.375 C15.18785156 1.4059375 14.25070312 1.436875 13.28515625 1.46875 C11.94130859 1.52675781 11.94130859 1.52675781 10.5703125 1.5859375 C9.32918701 1.63306885 9.32918701 1.63306885 8.06298828 1.68115234 C5.78013915 1.82599137 5.78013915 1.82599137 4 4 C2.68 2.68 1.36 1.36 0 0 Z " fill="#EEEEEE" transform="translate(267,606)"/>
<path d="M0 0 C8.58 0 17.16 0 26 0 C26 0.33 26 0.66 26 1 C25.40461426 1.01981934 24.80922852 1.03963867 24.19580078 1.06005859 C21.50507847 1.15516126 18.81514852 1.26489842 16.125 1.375 C15.18785156 1.4059375 14.25070312 1.436875 13.28515625 1.46875 C11.94130859 1.52675781 11.94130859 1.52675781 10.5703125 1.5859375 C9.32918701 1.63306885 9.32918701 1.63306885 8.06298828 1.68115234 C5.78013915 1.82599137 5.78013915 1.82599137 4 4 C2.68 2.68 1.36 1.36 0 0 Z " fill="#DFDFDF" transform="translate(663,377)"/>
<path d="M0 0 C8.58 0 17.16 0 26 0 C24.68 1.32 23.36 2.64 22 4 C21.34 3.34 20.68 2.68 20 2 C17.87139338 1.63047951 17.87139338 1.63047951 15.4296875 1.5859375 C14.53378906 1.54726563 13.63789063 1.50859375 12.71484375 1.46875 C11.77769531 1.4378125 10.84054687 1.406875 9.875 1.375 C8.45767578 1.31699219 8.45767578 1.31699219 7.01171875 1.2578125 C4.67467625 1.16338654 2.33764499 1.07781606 0 1 C0 0.67 0 0.34 0 0 Z " fill="#DFDFDF" transform="translate(311,377)"/>
<path d="M0 0 C8.25 0 16.5 0 25 0 C25 0.33 25 0.66 25 1 C21.75008318 1.16831525 18.50005436 1.33436362 15.25 1.5 C14.32960938 1.54769531 13.40921875 1.59539062 12.4609375 1.64453125 C11.57148438 1.68964844 10.68203125 1.73476563 9.765625 1.78125 C8.94868164 1.82314453 8.13173828 1.86503906 7.29003906 1.90820312 C5.19481876 1.99219063 3.09690296 2 1 2 C0.67 1.34 0.34 0.68 0 0 Z " fill="#FBFBFB" transform="translate(466,263)"/>
<path d="M0 0 C0.33 1.32 0.66 2.64 1 4 C1.99 5.485 1.99 5.485 3 7 C1.71034824 8.37562854 0.37310707 9.70766393 -1 11 C-1.66 11 -2.32 11 -3 11 C-2.01 7.37 -1.02 3.74 0 0 Z " fill="#B0B0B0" transform="translate(709,523)"/>
<path d="M0 0 C2.29633824 3.44450737 2.54016485 5.93812283 3 10 C0.53199953 8.84826645 -1.04783565 7.95216435 -3 6 C-2.01 5.34 -1.02 4.68 0 4 C0 2.68 0 1.36 0 0 Z " fill="#C3C3C3" transform="translate(290,523)"/>
<path d="M0 0 C0.33 0 0.66 0 1 0 C1.33 2.31 1.66 4.62 2 7 C0.02 7.99 0.02 7.99 -2 9 C-1.34 6.03 -0.68 3.06 0 0 Z " fill="#B9B9B9" transform="translate(678,410)"/>
<path d="M0 0 C0.66 0 1.32 0 2 0 C2.33 1.65 2.66 3.3 3 5 C2.01 5 1.02 5 0 5 C-0.33 6.32 -0.66 7.64 -1 9 C-2.60031344 5.79937313 -1.03173691 3.27728194 0 0 Z " fill="#B9B9B9" transform="translate(613,664)"/>
<path d="M0 0 C0.66 0 1.32 0 2 0 C2.33 1.98 2.66 3.96 3 6 C1.68 6.33 0.36 6.66 -1 7 C-0.67 4.69 -0.34 2.38 0 0 Z " fill="#CACACA" transform="translate(697,580)"/>
<path d="M0 0 C2.12508244 3.18762365 2.5020163 5.26512223 3 9 C1.68 8.34 0.36 7.68 -1 7 C-0.67 4.69 -0.34 2.38 0 0 Z " fill="#BABABA" transform="translate(519,753)"/>
<path d="M0 0 C-1.65 1.32 -3.3 2.64 -5 4 C-5.66 3.34 -6.32 2.68 -7 2 C-5.26578631 -1.46842738 -3.40984787 -1.13661596 0 0 Z " fill="#EEEEEE" transform="translate(534,264)"/>
</svg>
