<svg xmlns="http://www.w3.org/2000/svg" version="1.0" width="1000.000000pt" height="1000.000000pt" viewBox="0 0 1000 1000" preserveAspectRatio="xMidYMid meet">
 <g transform="translate(0.000000,1000.000000) scale(0.100000,-0.100000)" fill="#268bff" stroke="none">
<path d="M4680 9859 c-976 -63 -1915 -421 -2685 -1023 -230 -180 -500 -437 -680 -646 -713 -829 -1116 -1816 -1185 -2900 -53 -845 122 -1710 500 -2462 249 -495 534 -892 920 -1278 848 -848 1947 -1343 3150 -1420 739 -46 1509 85 2198 376 162 68 429 205 597 305 711 425 1311 1035 1724 1752 377 655 592 1372 641 2137 46 739 -85 1509 -376 2198 -68 162 -205 429 -305 597 -425 711 -1035 1311 -1752 1724 -830 478 -1790 702 -2747 640z"/>
</g>
<g transform="translate(0.000000,1000.000000) scale(0.100000,-0.100000)" fill="#000000" stroke="none">
<path d="M4680 9859 c-976 -63 -1915 -421 -2685 -1023 -230 -180 -500 -437 -680 -646 -713 -829 -1116 -1816 -1185 -2900 -53 -845 122 -1710 500 -2462 249 -495 534 -892 920 -1278 848 -848 1947 -1343 3150 -1420 739 -46 1509 85 2198 376 162 68 429 205 597 305 711 425 1311 1035 1724 1752 377 655 592 1372 641 2137 46 739 -85 1509 -376 2198 -68 162 -205 429 -305 597 -425 711 -1035 1311 -1752 1724 -830 478 -1790 702 -2747 640z m650 -604 c194 -16 270 -25 440 -56 939 -169 1802 -659 2440 -1386 862 -982 1222 -2287 989 -3583 -189 -1049 -779 -2001 -1643 -2649 -540 -405 -1182 -681 -1841 -790 -644 -106 -1266 -72 -1890 104 -779 220 -1492 673 -2035 1292 -799 911 -1171 2109 -1029 3318 135 1155 745 2210 1683 2914 825 619 1865 921 2886 836z"/>
<path d="M4765 8814 c-541 -44 -977 -159 -1433 -379 -1006 -486 -1756 -1405 -2032 -2489 -45 -177 -72 -325 -97 -526 -24 -202 -24 -638 0 -840 57 -464 167 -844 362 -1248 486 -1006 1405 -1756 2489 -2032 335 -85 577 -114 946 -114 369 0 611 29 946 114 711 181 1375 578 1864 1115 560 616 884 1327 987 2165 24 202 24 638 0 840 -56 461 -167 842 -358 1240 -487 1012 -1406 1764 -2493 2040 -308 78 -554 110 -891 115 -132 1 -262 1 -290 -1z m615 -1179 c255 -39 531 -116 879 -246 473 -177 742 -264 1101 -358 l215 -56 0 -380 c0 -352 -1 -383 -19 -418 -24 -48 -48 -61 -113 -60 -76 2 -182 35 -733 230 -885 313 -1071 371 -1265 393 -114 13 -643 13 -797 0 -143 -12 -230 -29 -368 -74 -117 -37 -472 -164 -479 -171 -7 -7 116 -60 494 -210 868 -345 838 -335 949 -346 329 -33 587 -101 1091 -289 410 -153 750 -261 1130 -357 l110 -28 0 -375 c0 -406 -3 -435 -53 -468 -36 -23 -118 -19 -224 12 -48 14 -287 96 -530 182 -892 314 -1044 364 -1233 401 -77 16 -146 18 -490 18 -416 0 -499 -6 -651 -46 -78 -20 -582 -194 -592 -204 -3 -3 -3 -7 0 -10 10 -11 344 -146 833 -340 488 -192 502 -197 600 -206 307 -29 596 -104 1043 -270 468 -175 760 -269 1099 -355 l193 -49 0 -370 c0 -214 -4 -385 -10 -406 -6 -19 -22 -46 -36 -60 -21 -20 -35 -24 -82 -23 -83 2 -156 25 -822 259 -870 306 -990 343 -1192 365 -120 13 -553 13 -750 0 -238 -15 -284 -28 -883 -245 -746 -269 -999 -352 -1239 -404 l-89 -20 7 127 c3 70 9 260 12 422 4 162 10 306 14 319 6 23 22 29 183 73 98 26 248 71 335 99 203 66 625 218 635 228 12 12 -618 260 -912 358 l-263 88 7 310 c4 171 10 370 14 444 l6 134 190 52 c105 28 262 75 350 104 206 69 608 212 618 221 18 15 -953 385 -1142 435 l-44 12 2 79 c8 370 24 800 29 805 4 4 95 30 202 59 223 60 509 156 914 304 561 206 865 290 1186 325 118 13 444 5 570 -14z"/>
</g>
</svg>
