<svg xmlns="http://www.w3.org/2000/svg" version="1.0" width="1000.000000pt" height="1000.000000pt" viewBox="0 0 1000.000000 1000.000000" preserveAspectRatio="xMidYMid meet">
<g transform="translate(0.000000,1000.000000) scale(0.100000,-0.100000)" fill="#ffffff" stroke="none">
<path d="M3930 9383 c-586 -339 -1558 -900 -2160 -1248 l-1095 -632 0 -2503 0 -2503 920 -531 c506 -293 1479 -854 2163 -1249 l1242 -717 1243 717 c683 395 1656 956 2162 1249 l920 531 0 2503 0 2503 -1085 626 c-597 345 -1570 907 -2163 1249 -593 342 -1079 622 -1080 621 -1 0 -481 -277 -1067 -616z"/>
</g>
<g transform="translate(0.000000,1000.000000) scale(0.100000,-0.100000)" fill="#000000" stroke="none">
<path d="M3930 9383 c-586 -339 -1558 -900 -2160 -1248 l-1095 -632 0 -2503 0 -2503 920 -531 c506 -293 1479 -854 2163 -1249 l1242 -717 1243 717 c683 395 1656 956 2162 1249 l920 531 0 2503 0 2503 -1085 626 c-597 345 -1570 907 -2163 1249 -593 342 -1079 622 -1080 621 -1 0 -481 -277 -1067 -616z m1155 -7 c28 -13 862 -492 1855 -1065 1312 -757 1814 -1051 1837 -1078 18 -20 37 -52 43 -72 14 -49 14 -4263 0 -4312 -6 -20 -25 -52 -43 -72 -23 -27 -522 -320 -1837 -1078 -993 -573 -1827 -1052 -1855 -1065 -63 -30 -117 -30 -180 0 -27 13 -862 492 -1855 1065 -1315 758 -1814 1051 -1837 1078 -18 20 -37 52 -43 72 -14 49 -14 4263 0 4312 6 20 25 52 43 72 23 27 525 321 1837 1078 993 573 1828 1052 1855 1065 28 13 68 24 90 24 22 0 63 -11 90 -24z"/>
<path d="M3525 8089 c-808 -467 -1573 -909 -1700 -982 l-230 -133 0 -1969 0 -1969 1700 -982 c1213 -700 1704 -979 1715 -973 8 4 773 446 1700 982 l1685 973 0 1969 0 1969 -210 121 c-115 67 -871 503 -1680 970 -808 466 -1479 854 -1490 860 -18 11 -180 -80 -1490 -836z m1715 -644 c281 -33 481 -88 945 -260 300 -112 632 -219 850 -275 88 -23 177 -46 198 -51 l37 -10 0 -303 c0 -330 -7 -397 -45 -435 -50 -51 -116 -36 -587 130 -672 237 -748 263 -893 309 -292 93 -307 95 -740 95 -487 -1 -516 -6 -975 -174 l-135 -50 60 -26 c62 -28 404 -166 745 -300 107 -43 240 -95 295 -117 75 -29 124 -42 195 -49 289 -29 518 -91 1000 -269 397 -146 621 -217 973 -306 l108 -27 -3 -336 c-3 -312 -4 -339 -23 -376 -44 -87 -99 -76 -660 122 -911 322 -1051 365 -1260 384 -165 16 -658 5 -785 -17 -100 -17 -254 -64 -480 -146 -74 -26 -142 -51 -150 -54 -13 -4 -13 -6 0 -14 24 -15 327 -139 770 -313 387 -153 421 -165 500 -171 264 -21 536 -94 1020 -274 302 -112 610 -211 853 -273 l207 -53 3 -196 c4 -338 -2 -469 -23 -517 -42 -95 -70 -89 -1000 240 -402 142 -579 199 -717 235 l-108 27 -415 0 c-362 0 -426 -2 -500 -18 -87 -19 -321 -96 -625 -207 -249 -90 -748 -264 -835 -291 -70 -21 -312 -78 -317 -74 -6 3 20 781 26 786 3 3 83 27 176 52 235 64 821 262 848 286 16 16 -878 356 -1013 386 l-33 7 7 307 c4 168 9 347 13 397 l6 92 176 47 c184 50 840 271 859 289 12 13 -924 366 -1035 390 -28 7 -28 7 -26 79 2 40 7 215 13 391 5 175 11 320 13 322 2 3 98 31 213 63 204 58 514 162 764 256 476 179 772 258 1115 298 79 10 283 6 395 -8z"/>
</g>
</svg>
