<svg xmlns="http://www.w3.org/2000/svg" version="1.0" width="800px" height="800px" viewBox="0 0 800 800" preserveAspectRatio="xMidYMid meet">
<g transform="translate(0.000000,800.000000) scale(0.100000,-0.100000)" fill="#000000" stroke="none">
<path d="M3590 7530 c-331 -95 -1192 -343 -2418 -694 -216 -62 -395 -115 -398 -118 -11 -12 -144 -718 -163 -866 -59 -463 -54 -987 14 -1472 119 -848 464 -1666 980 -2326 241 -307 582 -640 905 -882 363 -273 717 -473 1269 -721 l224 -101 226 102 c124 56 314 146 421 199 508 255 975 587 1356 966 750 746 1223 1705 1373 2784 41 294 46 386 46 784 -1 516 -11 612 -134 1233 -32 161 -62 296 -67 301 -5 5 -317 96 -694 204 -377 107 -1095 313 -1596 456 -501 144 -924 261 -940 260 -16 0 -198 -49 -404 -109z m1403 -526 c529 -152 1180 -338 1446 -414 266 -77 487 -144 491 -151 7 -10 86 -411 110 -554 57 -347 63 -875 15 -1300 -97 -850 -401 -1622 -894 -2270 -346 -455 -807 -859 -1351 -1185 -134 -81 -483 -258 -666 -338 l-141 -62 -149 65 c-837 371 -1463 834 -1956 1448 -377 471 -653 1019 -813 1615 -179 671 -220 1415 -114 2077 22 138 95 504 101 510 4 4 123 39 1483 429 451 129 951 273 1110 319 160 47 307 85 328 86 22 1 431 -112 1000 -275z"/>
<path d="M3985 6912 c-18 -4 -409 -115 -1975 -564 -327 -93 -605 -176 -616 -183 -18 -11 -26 -39 -48 -152 -117 -613 -95 -1355 60 -1973 183 -732 524 -1351 1034 -1874 378 -388 786 -675 1335 -942 105 -50 200 -95 211 -98 27 -8 314 126 539 251 1063 594 1765 1485 2059 2615 91 350 133 665 143 1078 8 361 -13 641 -73 953 -23 118 -30 140 -48 148 -14 6 -2419 695 -2591 743 -5 1 -19 0 -30 -2z m-368 -1780 c204 -205 377 -372 383 -372 7 0 195 183 418 406 l405 406 276 -276 276 -276 -408 -408 c-224 -224 -407 -410 -407 -414 0 -4 182 -189 405 -411 223 -222 405 -406 405 -408 0 -3 -123 -127 -272 -277 l-272 -272 -36 32 c-19 18 -205 201 -413 408 l-377 375 -410 -410 -410 -410 -275 275 -275 275 400 400 c219 220 402 407 405 415 4 9 -128 148 -402 422 l-408 408 274 274 275 275 35 -33 c20 -17 203 -199 408 -404z"/>
</g>
</svg>
