<svg xmlns="http://www.w3.org/2000/svg" version="1.0" width="800px" height="800px" viewBox="0 0 800 800" preserveAspectRatio="xMidYMid meet">
<g transform="translate(0.000000,800.000000) scale(0.100000,-0.100000)" fill="#2aa658" stroke="none">
<path d="M3240 7439 c-399 -115 -1113 -320 -1587 -455 -474 -136 -867 -250 -874 -254 -22 -14 -156 -723 -185 -980 -22 -197 -30 -724 -15 -945 129 -1844 1119 -3319 2786 -4153 88 -44 267 -127 397 -186 l237 -106 193 86 c644 287 1040 520 1463 865 625 507 1117 1178 1413 1924 230 579 345 1168 359 1835 6 308 -4 528 -38 792 -19 147 -152 854 -163 865 -3 3 -373 111 -823 240 -450 129 -1170 335 -1600 459 -431 123 -795 224 -810 223 -16 -1 -354 -95 -753 -210z m1364 -315 c320 -92 970 -278 1446 -415 528 -151 869 -253 875 -263 13 -18 99 -452 120 -606 71 -533 50 -1133 -61 -1680 -279 -1381 -1127 -2482 -2437 -3165 -78 -40 -233 -115 -344 -165 l-203 -91 -172 76 c-588 262 -1050 557 -1466 938 -733 672 -1206 1552 -1376 2562 -100 587 -100 1187 -1 1720 37 196 82 415 87 420 2 3 486 143 1074 311 588 168 1238 355 1444 414 206 60 388 109 404 109 16 1 291 -74 610 -165z"/>
<path d="M3615 6819 c-209 -61 -796 -229 -1305 -375 -509 -146 -928 -268 -932 -272 -10 -11 -56 -254 -72 -382 -53 -420 -46 -913 20 -1359 97 -662 372 -1327 767 -1854 141 -187 223 -283 382 -442 386 -385 859 -707 1406 -954 l117 -53 73 32 c350 152 760 394 1049 619 740 575 1240 1341 1470 2251 159 633 183 1371 64 1993 -30 158 -27 154 -144 186 -41 11 -617 176 -1280 366 -663 190 -1212 347 -1220 349 -8 2 -186 -45 -395 -105z m1853 -1532 l273 -273 -987 -987 c-543 -543 -998 -997 -1011 -1009 l-24 -22 -599 599 c-330 330 -600 604 -600 610 0 6 122 132 270 280 l270 270 330 -330 330 -330 727 725 c400 399 729 728 731 733 2 4 7 7 10 7 4 0 130 -123 280 -273z"/>
</g>
</svg>
