<svg xmlns="http://www.w3.org/2000/svg" version="1.0" width="1000pt" height="1000pt" viewBox="0 0 1000 1000" preserveAspectRatio="xMidYMid meet">
  <g transform="translate(0,1000) scale(0.1,-0.1)" fill="#FF0000" stroke="none" fill-rule="evenodd">
    <path d="M4680 9869 c-976 -63 -1915 -421 -2685 -1023 -230 -180 -500 -437 -680 -646 -713 -829 -1116 -1816 -1185 -2900 -53 -845 122 -1710 500 -2462 249 -495 534 -892 920 -1278 848 -848 1947 -1343 3150 -1420 739 -46 1509 85 2198 376 162 68 429 205 597 305 711 425 1311 1035 1724 1752 377 655 592 1372 641 2137 46 739 -85 1509 -376 2198 -68 162 -205 429 -305 597 -425 711 -1035 1311 -1752 1724 -830 478 -1790 702 -2747 640z m650 -614 c194 -16 270 -25 440 -56 939 -169 1802 -659 2440 -1386 862 -982 1222 -2287 989 -3583 -189 -1049 -779 -2001 -1643 -2649 -540 -405 -1182 -681 -1841 -790 -644 -106 -1266 -72 -1890 104 -779 220 -1492 673 -2035 1292 -799 911 -1171 2109 -1029 3318 135 1155 745 2210 1683 2914 825 619 1865 921 2886 836z"/>
    <path d="M4765 8814 c-541 -44 -977 -159 -1433 -379 -1006 -486 -1756 -1405 -2032 -2489 -45 -177 -72 -325 -97 -526 -24 -202 -24 -638 0 -840 57 -464 167 -844 362 -1248 486 -1006 1405 -1756 2489 -2032 335 -85 577 -114 946 -114 369 0 611 29 946 114 711 181 1375 578 1864 1115 560 616 884 1327 987 2165 24 202 24 638 0 840 -56 461 -167 842 -358 1240 -487 1012 -1406 1764 -2493 2040 -308 78 -554 110 -891 115 -132 1 -262 1 -290 -1z"/>
  </g>
</svg>
